<svg xmlns="http://www.w3.org/2000/svg" width="520.2887573242188" height="555.723876953125" viewBox="-187.57936096191406 -178.8917236328125 520.2887573242188 555.723876953125"><title>Neo4j Graph Visualization</title><desc>Created using Neo4j (http://www.neo4j.com/)</desc><g class="layer relationships"><g class="relationship" transform="translate(265.4010874801985 279.85293984707204) rotate(511.00361433152125)"><path class="outline" fill="#A5ABB6" stroke="none" d="M 25 0.5 L 43.8359021387559 0.5 L 43.8359021387559 -0.5 L 25 -0.5 Z M 89.3984021387559 0.5 L 108.2343042775118 0.5 L 108.2343042775118 3.5 L 115.2343042775118 0 L 108.2343042775118 -3.5 L 108.2343042775118 -0.5 L 89.3984021387559 -0.5 Z"/><text text-anchor="middle" pointer-events="none" font-size="8px" fill="#000000" x="66.6171521387559" y="3" transform="rotate(180 66.6171521387559 0)" font-family="sans-serif">ACTED_IN</text></g><g class="relationship" transform="translate(265.4010874801985 279.85293984707204) rotate(494.8655564894331)"><path class="outline" fill="#A5ABB6" stroke="none" d="M 25 0.5 L 26.09020090891505 0.5 L 26.09020090891505 -0.5 L 25 -0.5 Z M 56.09020090891505 0.5 L 57.1804018178301 0.5 L 57.1804018178301 3.5 L 64.1804018178301 0 L 57.1804018178301 -3.5 L 57.1804018178301 -0.5 L 56.09020090891505 -0.5 Z"/><text text-anchor="middle" pointer-events="none" font-size="8px" fill="#000000" x="41.09020090891505" y="3" transform="rotate(180 41.09020090891505 0)" font-family="sans-serif">ACT…</text></g><g class="relationship" transform="translate(265.4010874801985 279.85293984707204) rotate(229.75058237580544)"><path class="outline" fill="#A5ABB6" stroke="none" d="M 25 0.5 L 27.741364131792466 0.5 L 27.741364131792466 -0.5 L 25 -0.5 Z M 73.30386413179247 0.5 L 76.04522826358493 0.5 L 76.04522826358493 3.5 L 83.04522826358493 0 L 76.04522826358493 -3.5 L 76.04522826358493 -0.5 L 73.30386413179247 -0.5 Z"/><text text-anchor="middle" pointer-events="none" font-size="8px" fill="#000000" x="50.522614131792466" y="3" transform="rotate(180 50.522614131792466 0)" font-family="sans-serif">ACTED_IN</text></g><g class="relationship" transform="translate(105.23267663854439 261.09042736357094) rotate(426.6133847853219)"><path class="outline" fill="#A5ABB6" stroke="none" d="M 25 0.5 L 26.08483010160785 0.5 L 26.08483010160785 -0.5 L 25 -0.5 Z M 61.42076760160785 0.5 L 62.5055977032157 0.5 L 62.5055977032157 3.5 L 69.5055977032157 0 L 62.5055977032157 -3.5 L 62.5055977032157 -0.5 L 61.42076760160785 -0.5 Z"/><text text-anchor="middle" pointer-events="none" font-size="8px" fill="#000000" x="43.75279885160785" y="3" font-family="sans-serif">ACTE…</text></g><g class="relationship" transform="translate(105.23267663854439 261.09042736357094) rotate(400.1250876191625)"><path class="outline" fill="#A5ABB6" stroke="none" d="M 25 0.5 L 37.315067854705624 0.5 L 37.315067854705624 -0.5 L 25 -0.5 Z M 82.87756785470563 0.5 L 95.19263570941125 0.5 L 95.19263570941125 3.5 L 102.19263570941125 0 L 95.19263570941125 -3.5 L 95.19263570941125 -0.5 L 82.87756785470563 -0.5 Z"/><text text-anchor="middle" pointer-events="none" font-size="8px" fill="#000000" x="60.096317854705624" y="3" font-family="sans-serif">ACTED_IN</text></g><g class="relationship" transform="translate(105.23267663854439 261.09042736357094) rotate(324.81659329911315)"><path class="outline" fill="#A5ABB6" stroke="none" d="M 25 0.5 L 28.99669643619282 0.5 L 28.99669643619282 -0.5 L 25 -0.5 Z M 74.55919643619282 0.5 L 78.55589287238564 0.5 L 78.55589287238564 3.5 L 85.55589287238564 0 L 78.55589287238564 -3.5 L 78.55589287238564 -0.5 L 74.55919643619282 -0.5 Z"/><text text-anchor="middle" pointer-events="none" font-size="8px" fill="#000000" x="51.77794643619282" y="3" font-family="sans-serif">ACTED_IN</text></g><g class="relationship" transform="translate(303.70937178481336 -56.11348135908638) rotate(223.6614890562563)"><path class="outline" fill="#A5ABB6" stroke="none" d="M 25 0.5 L 41.6349848474666 0.5 L 41.6349848474666 -0.5 L 25 -0.5 Z M 87.1974848474666 0.5 L 103.8324696949332 0.5 L 103.8324696949332 3.5 L 110.8324696949332 0 L 103.8324696949332 -3.5 L 103.8324696949332 -0.5 L 87.1974848474666 -0.5 Z"/><text text-anchor="middle" pointer-events="none" font-size="8px" fill="#000000" x="64.4162348474666" y="3" transform="rotate(180 64.4162348474666 0)" font-family="sans-serif">ACTED_IN</text></g><g class="relationship" transform="translate(303.70937178481336 -56.11348135908638) rotate(539.3174765840845)"><path class="outline" fill="#A5ABB6" stroke="none" d="M 25 0.5 L 29.650685159799465 0.5 L 29.650685159799465 -0.5 L 25 -0.5 Z M 75.21318515979947 0.5 L 79.86387031959893 0.5 L 79.86387031959893 3.5 L 86.86387031959893 0 L 79.86387031959893 -3.5 L 79.86387031959893 -0.5 L 75.21318515979947 -0.5 Z"/><text text-anchor="middle" pointer-events="none" font-size="8px" fill="#000000" x="52.431935159799465" y="3" transform="rotate(180 52.431935159799465 0)" font-family="sans-serif">ACTED_IN</text></g><g class="relationship" transform="translate(303.70937178481336 -56.11348135908638) rotate(468.603898002772)"><path class="outline" fill="#A5ABB6" stroke="none" d="M 25 0.5 L 25.28488477348899 0.5 L 25.28488477348899 -0.5 L 25 -0.5 Z M 50.39816602348899 0.5 L 50.68305079697798 0.5 L 50.68305079697798 3.5 L 57.68305079697798 0 L 50.68305079697798 -3.5 L 50.68305079697798 -0.5 L 50.39816602348899 -0.5 Z"/><text text-anchor="middle" pointer-events="none" font-size="8px" fill="#000000" x="37.84152539848899" y="3" transform="rotate(180 37.84152539848899 0)" font-family="sans-serif">AC…</text></g><g class="relationship" transform="translate(286.26452994970776 -113.45394548325314) rotate(453.7662149358773)"><path class="outline" fill="#A5ABB6" stroke="none" d="M 25 0.5 L 41.71712773404447 0.5 L 41.71712773404447 -0.5 L 25 -0.5 Z M 87.27962773404447 0.5 L 103.99675546808894 0.5 L 103.99675546808894 3.5 L 110.99675546808894 0 L 103.99675546808894 -3.5 L 103.99675546808894 -0.5 L 87.27962773404447 -0.5 Z"/><text text-anchor="middle" pointer-events="none" font-size="8px" fill="#000000" x="64.49837773404447" y="3" transform="rotate(180 64.49837773404447 0)" font-family="sans-serif">ACTED_IN</text></g><g class="relationship" transform="translate(286.26452994970776 -113.45394548325314) rotate(204.26811103933426)"><path class="outline" fill="#A5ABB6" stroke="none" d="M 25 0.5 L 25.82743174047915 0.5 L 25.82743174047915 -0.5 L 25 -0.5 Z M 55.82743174047915 0.5 L 56.6548634809583 0.5 L 56.6548634809583 3.5 L 63.6548634809583 0 L 56.6548634809583 -3.5 L 56.6548634809583 -0.5 L 55.82743174047915 -0.5 Z"/><text text-anchor="middle" pointer-events="none" font-size="8px" fill="#000000" x="40.82743174047915" y="3" transform="rotate(180 40.82743174047915 0)" font-family="sans-serif">ACT…</text></g><g class="relationship" transform="translate(286.26452994970776 -113.45394548325314) rotate(508.1405841245793)"><path class="outline" fill="#A5ABB6" stroke="none" d="M 25 0.5 L 29.29746349422488 0.5 L 29.29746349422488 -0.5 L 25 -0.5 Z M 74.85996349422487 0.5 L 79.15742698844976 0.5 L 79.15742698844976 3.5 L 86.15742698844976 0 L 79.15742698844976 -3.5 L 79.15742698844976 -0.5 L 74.85996349422487 -0.5 Z"/><text text-anchor="middle" pointer-events="none" font-size="8px" fill="#000000" x="52.07871349422488" y="3" transform="rotate(180 52.07871349422488 0)" font-family="sans-serif">ACTED_IN</text></g><g class="relationship" transform="translate(-158.57935713310198 26.587812986501987) rotate(323.06270010725393)"><path class="outline" fill="#A5ABB6" stroke="none" d="M 25 0.5 L 28.521886597822338 0.5 L 28.521886597822338 -0.5 L 25 -0.5 Z M 74.08438659782234 0.5 L 77.60627319564468 0.5 L 77.60627319564468 3.5 L 84.60627319564468 0 L 77.60627319564468 -3.5 L 77.60627319564468 -0.5 L 74.08438659782234 -0.5 Z"/><text text-anchor="middle" pointer-events="none" font-size="8px" fill="#000000" x="51.30313659782234" y="3" font-family="sans-serif">ACTED_IN</text></g><g class="relationship" transform="translate(-158.57935713310198 26.587812986501987) rotate(424.7654643649594)"><path class="outline" fill="#A5ABB6" stroke="none" d="M 25 0.5 L 38.98089410746975 0.5 L 38.98089410746975 -0.5 L 25 -0.5 Z M 84.54339410746975 0.5 L 98.5242882149395 0.5 L 98.5242882149395 3.5 L 105.5242882149395 0 L 98.5242882149395 -3.5 L 98.5242882149395 -0.5 L 84.54339410746975 -0.5 Z"/><text text-anchor="middle" pointer-events="none" font-size="8px" fill="#000000" x="61.76214410746975" y="3" font-family="sans-serif">ACTED_IN</text></g><g class="relationship" transform="translate(-158.57935713310198 26.587812986501987) rotate(449.9896823699721)"><path class="outline" fill="#A5ABB6" stroke="none" d="M 25 0.5 L 26.629282266320985 0.5 L 26.629282266320985 -0.5 L 25 -0.5 Z M 61.965219766320985 0.5 L 63.59450203264197 0.5 L 63.59450203264197 3.5 L 70.59450203264197 0 L 63.59450203264197 -3.5 L 63.59450203264197 -0.5 L 61.965219766320985 -0.5 Z"/><text text-anchor="middle" pointer-events="none" font-size="8px" fill="#000000" x="44.297251016320985" y="3" font-family="sans-serif">ACTE…</text></g><g class="relationship" transform="translate(-43.229552971717965 68.69756765147315) rotate(515.1207910485117)"><path class="outline" fill="#A5ABB6" stroke="none" d="M 25 0.5 L 37.28411854180397 0.5 L 37.28411854180397 -0.5 L 25 -0.5 Z M 82.84661854180396 0.5 L 95.13073708360794 0.5 L 95.13073708360794 3.5 L 102.13073708360794 0 L 95.13073708360794 -3.5 L 95.13073708360794 -0.5 L 82.84661854180396 -0.5 Z"/><text text-anchor="middle" pointer-events="none" font-size="8px" fill="#000000" x="60.06536854180397" y="3" transform="rotate(180 60.06536854180397 0)" font-family="sans-serif">ACTED_IN</text></g><g class="relationship" transform="translate(-43.229552971717965 68.69756765147315) rotate(255.59077841159694)"><path class="outline" fill="#A5ABB6" stroke="none" d="M 25 0.5 L 29.46052463246258 0.5 L 29.46052463246258 -0.5 L 25 -0.5 Z M 75.02302463246258 0.5 L 79.48354926492516 0.5 L 79.48354926492516 3.5 L 86.48354926492516 0 L 79.48354926492516 -3.5 L 79.48354926492516 -0.5 L 75.02302463246258 -0.5 Z"/><text text-anchor="middle" pointer-events="none" font-size="8px" fill="#000000" x="52.24177463246258" y="3" transform="rotate(180 52.24177463246258 0)" font-family="sans-serif">ACTED_IN</text></g><g class="relationship" transform="translate(-43.229552971717965 68.69756765147315) rotate(488.1676278919693)"><path class="outline" fill="#A5ABB6" stroke="none" d="M 25 0.5 L 27.139101188153163 0.5 L 27.139101188153163 -0.5 L 25 -0.5 Z M 62.47503868815316 0.5 L 64.61413987630633 0.5 L 64.61413987630633 3.5 L 71.61413987630633 0 L 64.61413987630633 -3.5 L 64.61413987630633 -0.5 L 62.47503868815316 -0.5 Z"/><text text-anchor="middle" pointer-events="none" font-size="8px" fill="#000000" x="44.80706993815316" y="3" transform="rotate(180 44.80706993815316 0)" font-family="sans-serif">ACTE…</text></g></g><g class="layer nodes"><g class="node" transform="translate(265.4010874801985,279.85293984707204)"><circle class="outline" cx="0" cy="0" r="25" fill="#F79767" stroke="#f36924" stroke-width="2px"/><text text-anchor="middle" pointer-events="none" font-family="sans-serif" dy="1.5625" font-size="25" fill="#FFFFFF"/><text text-anchor="middle" pointer-events="none" font-family="sans-serif" dy="1.5625" font-size="25" fill="#FFFFFF"/><text text-anchor="middle" pointer-events="none" x="0" y="0" font-size="10px" fill="#FFFFFF" font-family="sans-serif"> Hugo</text><text text-anchor="middle" pointer-events="none" x="0" y="10" font-size="10px" fill="#FFFFFF" font-family="sans-serif"> Weaving</text></g><g class="node" transform="translate(105.23267663854439,261.09042736357094)"><circle class="outline" cx="0" cy="0" r="25" fill="#F79767" stroke="#f36924" stroke-width="2px"/><text text-anchor="middle" pointer-events="none" font-family="sans-serif" dy="1.5625" font-size="25" fill="#FFFFFF"/><text text-anchor="middle" pointer-events="none" font-family="sans-serif" dy="1.5625" font-size="25" fill="#FFFFFF"/><text text-anchor="middle" pointer-events="none" x="0" y="0" font-size="10px" fill="#FFFFFF" font-family="sans-serif"> Keanu</text><text text-anchor="middle" pointer-events="none" x="0" y="10" font-size="10px" fill="#FFFFFF" font-family="sans-serif"> Reeves</text></g><g class="node" transform="translate(142.7451128350058,347.83214240223305)"><circle class="outline" cx="0" cy="0" r="25" fill="#57C7E3" stroke="#23b3d7" stroke-width="2px"/><text text-anchor="middle" pointer-events="none" font-family="sans-serif" dy="1.5625" font-size="25" fill="#2A2C34"/><text text-anchor="middle" pointer-events="none" font-family="sans-serif" dy="1.5625" font-size="25" fill="#2A2C34"/><text text-anchor="middle" pointer-events="none" font-family="sans-serif" dy="1.5625" font-size="25" fill="#2A2C34"/><text text-anchor="middle" pointer-events="none" x="0" y="-5" font-size="10px" fill="#2A2C34" font-family="sans-serif"> The</text><text text-anchor="middle" pointer-events="none" x="0" y="5" font-size="10px" fill="#2A2C34" font-family="sans-serif"> Matrix</text><text text-anchor="middle" pointer-events="none" x="0" y="15" font-size="10px" fill="#2A2C34" font-family="sans-serif"> Revol…</text></g><g class="node" transform="translate(202.4891633802817,343.0608022886698)"><circle class="outline" cx="0" cy="0" r="25" fill="#57C7E3" stroke="#23b3d7" stroke-width="2px"/><text text-anchor="middle" pointer-events="none" font-family="sans-serif" dy="1.5625" font-size="25" fill="#2A2C34"/><text text-anchor="middle" pointer-events="none" font-family="sans-serif" dy="1.5625" font-size="25" fill="#2A2C34"/><text text-anchor="middle" pointer-events="none" font-family="sans-serif" dy="1.5625" font-size="25" fill="#2A2C34"/><text text-anchor="middle" pointer-events="none" x="0" y="-5" font-size="10px" fill="#2A2C34" font-family="sans-serif"> The</text><text text-anchor="middle" pointer-events="none" x="0" y="5" font-size="10px" fill="#2A2C34" font-family="sans-serif"> Matrix</text><text text-anchor="middle" pointer-events="none" x="0" y="15" font-size="10px" fill="#2A2C34" font-family="sans-serif"> Reloa…</text></g><g class="node" transform="translate(195.59131280795134,197.38860385423055)"><circle class="outline" cx="0" cy="0" r="25" fill="#57C7E3" stroke="#23b3d7" stroke-width="2px"/><text text-anchor="middle" pointer-events="none" font-family="sans-serif" dy="1.5625" font-size="25" fill="#2A2C34"/><text text-anchor="middle" pointer-events="none" font-family="sans-serif" dy="1.5625" font-size="25" fill="#2A2C34"/><text text-anchor="middle" pointer-events="none" x="0" y="0" font-size="10px" fill="#2A2C34" font-family="sans-serif"> The</text><text text-anchor="middle" pointer-events="none" x="0" y="10" font-size="10px" fill="#2A2C34" font-family="sans-serif"> Matrix</text></g><g class="node" transform="translate(303.70937178481336,-56.11348135908638)"><circle class="outline" cx="0" cy="0" r="25" fill="#F79767" stroke="#f36924" stroke-width="2px"/><text text-anchor="middle" pointer-events="none" font-family="sans-serif" dy="1.5625" font-size="25" fill="#FFFFFF"/><text text-anchor="middle" pointer-events="none" font-family="sans-serif" dy="1.5625" font-size="25" fill="#FFFFFF"/><text text-anchor="middle" pointer-events="none" x="0" y="0" font-size="10px" fill="#FFFFFF" font-family="sans-serif"> Hugo</text><text text-anchor="middle" pointer-events="none" x="0" y="10" font-size="10px" fill="#FFFFFF" font-family="sans-serif"> Weaving</text></g><g class="node" transform="translate(286.26452994970776,-113.45394548325314)"><circle class="outline" cx="0" cy="0" r="25" fill="#F79767" stroke="#f36924" stroke-width="2px"/><text text-anchor="middle" pointer-events="none" font-family="sans-serif" dy="1.5625" font-size="25" fill="#FFFFFF"/><text text-anchor="middle" pointer-events="none" font-family="sans-serif" dy="1.5625" font-size="25" fill="#FFFFFF"/><text text-anchor="middle" pointer-events="none" x="0" y="0" font-size="10px" fill="#FFFFFF" font-family="sans-serif"> Keanu</text><text text-anchor="middle" pointer-events="none" x="0" y="10" font-size="10px" fill="#FFFFFF" font-family="sans-serif"> Reeves</text></g><g class="node" transform="translate(277.3315117102416,22.249107846362634)"><circle class="outline" cx="0" cy="0" r="25" fill="#57C7E3" stroke="#23b3d7" stroke-width="2px"/><text text-anchor="middle" pointer-events="none" font-family="sans-serif" dy="1.5625" font-size="25" fill="#2A2C34"/><text text-anchor="middle" pointer-events="none" font-family="sans-serif" dy="1.5625" font-size="25" fill="#2A2C34"/><text text-anchor="middle" pointer-events="none" font-family="sans-serif" dy="1.5625" font-size="25" fill="#2A2C34"/><text text-anchor="middle" pointer-events="none" x="0" y="-5" font-size="10px" fill="#2A2C34" font-family="sans-serif"> The</text><text text-anchor="middle" pointer-events="none" x="0" y="5" font-size="10px" fill="#2A2C34" font-family="sans-serif"> Matrix</text><text text-anchor="middle" pointer-events="none" x="0" y="15" font-size="10px" fill="#2A2C34" font-family="sans-serif"> Revol…</text></g><g class="node" transform="translate(205.44390429178506,-149.89171828963194)"><circle class="outline" cx="0" cy="0" r="25" fill="#57C7E3" stroke="#23b3d7" stroke-width="2px"/><text text-anchor="middle" pointer-events="none" font-family="sans-serif" dy="1.5625" font-size="25" fill="#2A2C34"/><text text-anchor="middle" pointer-events="none" font-family="sans-serif" dy="1.5625" font-size="25" fill="#2A2C34"/><text text-anchor="middle" pointer-events="none" x="0" y="0" font-size="10px" fill="#2A2C34" font-family="sans-serif"> The</text><text text-anchor="middle" pointer-events="none" x="0" y="10" font-size="10px" fill="#2A2C34" font-family="sans-serif"> Matrix</text></g><g class="node" transform="translate(191.8534382491288,-54.78095903635912)"><circle class="outline" cx="0" cy="0" r="25" fill="#57C7E3" stroke="#23b3d7" stroke-width="2px"/><text text-anchor="middle" pointer-events="none" font-family="sans-serif" dy="1.5625" font-size="25" fill="#2A2C34"/><text text-anchor="middle" pointer-events="none" font-family="sans-serif" dy="1.5625" font-size="25" fill="#2A2C34"/><text text-anchor="middle" pointer-events="none" font-family="sans-serif" dy="1.5625" font-size="25" fill="#2A2C34"/><text text-anchor="middle" pointer-events="none" x="0" y="-5" font-size="10px" fill="#2A2C34" font-family="sans-serif"> The</text><text text-anchor="middle" pointer-events="none" x="0" y="5" font-size="10px" fill="#2A2C34" font-family="sans-serif"> Matrix</text><text text-anchor="middle" pointer-events="none" x="0" y="15" font-size="10px" fill="#2A2C34" font-family="sans-serif"> Reloa…</text></g><g class="node" transform="translate(-158.57935713310198,26.587812986501987)"><circle class="outline" cx="0" cy="0" r="25" fill="#F79767" stroke="#f36924" stroke-width="2px"/><text text-anchor="middle" pointer-events="none" font-family="sans-serif" dy="1.5625" font-size="25" fill="#FFFFFF"/><text text-anchor="middle" pointer-events="none" font-family="sans-serif" dy="1.5625" font-size="25" fill="#FFFFFF"/><text text-anchor="middle" pointer-events="none" x="0" y="0" font-size="10px" fill="#FFFFFF" font-family="sans-serif"> Hugo</text><text text-anchor="middle" pointer-events="none" x="0" y="10" font-size="10px" fill="#FFFFFF" font-family="sans-serif"> Weaving</text></g><g class="node" transform="translate(-43.229552971717965,68.69756765147315)"><circle class="outline" cx="0" cy="0" r="25" fill="#F79767" stroke="#f36924" stroke-width="2px"/><text text-anchor="middle" pointer-events="none" font-family="sans-serif" dy="1.5625" font-size="25" fill="#FFFFFF"/><text text-anchor="middle" pointer-events="none" font-family="sans-serif" dy="1.5625" font-size="25" fill="#FFFFFF"/><text text-anchor="middle" pointer-events="none" x="0" y="0" font-size="10px" fill="#FFFFFF" font-family="sans-serif"> Keanu</text><text text-anchor="middle" pointer-events="none" x="0" y="10" font-size="10px" fill="#FFFFFF" font-family="sans-serif"> Reeves</text></g><g class="node" transform="translate(-158.56214279885742,122.18231346919444)"><circle class="outline" cx="0" cy="0" r="25" fill="#57C7E3" stroke="#23b3d7" stroke-width="2px"/><text text-anchor="middle" pointer-events="none" font-family="sans-serif" dy="1.5625" font-size="25" fill="#2A2C34"/><text text-anchor="middle" pointer-events="none" font-family="sans-serif" dy="1.5625" font-size="25" fill="#2A2C34"/><text text-anchor="middle" pointer-events="none" font-family="sans-serif" dy="1.5625" font-size="25" fill="#2A2C34"/><text text-anchor="middle" pointer-events="none" x="0" y="-5" font-size="10px" fill="#2A2C34" font-family="sans-serif"> The</text><text text-anchor="middle" pointer-events="none" x="0" y="5" font-size="10px" fill="#2A2C34" font-family="sans-serif"> Matrix</text><text text-anchor="middle" pointer-events="none" x="0" y="15" font-size="10px" fill="#2A2C34" font-family="sans-serif"> Revol…</text></g><g class="node" transform="translate(-70.97176314087116,-39.27905728020143)"><circle class="outline" cx="0" cy="0" r="25" fill="#57C7E3" stroke="#23b3d7" stroke-width="2px"/><text text-anchor="middle" pointer-events="none" font-family="sans-serif" dy="1.5625" font-size="25" fill="#2A2C34"/><text text-anchor="middle" pointer-events="none" font-family="sans-serif" dy="1.5625" font-size="25" fill="#2A2C34"/><text text-anchor="middle" pointer-events="none" font-family="sans-serif" dy="1.5625" font-size="25" fill="#2A2C34"/><text text-anchor="middle" pointer-events="none" x="0" y="-5" font-size="10px" fill="#2A2C34" font-family="sans-serif"> The</text><text text-anchor="middle" pointer-events="none" x="0" y="5" font-size="10px" fill="#2A2C34" font-family="sans-serif"> Matrix</text><text text-anchor="middle" pointer-events="none" x="0" y="15" font-size="10px" fill="#2A2C34" font-family="sans-serif"> Reloa…</text></g><g class="node" transform="translate(-102.93364109558583,144.65620037571261)"><circle class="outline" cx="0" cy="0" r="25" fill="#57C7E3" stroke="#23b3d7" stroke-width="2px"/><text text-anchor="middle" pointer-events="none" font-family="sans-serif" dy="1.5625" font-size="25" fill="#2A2C34"/><text text-anchor="middle" pointer-events="none" font-family="sans-serif" dy="1.5625" font-size="25" fill="#2A2C34"/><text text-anchor="middle" pointer-events="none" x="0" y="0" font-size="10px" fill="#2A2C34" font-family="sans-serif"> The</text><text text-anchor="middle" pointer-events="none" x="0" y="10" font-size="10px" fill="#2A2C34" font-family="sans-serif"> Matrix</text></g></g></svg>