<svg xmlns="http://www.w3.org/2000/svg" width="749.426513671875" height="771.2724609375" viewBox="-255.63206481933594 -284.1835021972656 749.426513671875 771.2724609375"><title>Neo4j Graph Visualization</title><desc>Created using Neo4j (http://www.neo4j.com/)</desc><g class="layer relationships"><g class="relationship" transform="translate(78.59192764365245 271.4870665093228) rotate(283.8684079284195)"><path class="outline" fill="#A5ABB6" stroke="none" d="M 21.40063509461097,12.933012701892217 L 21.90063509461097,12.06698729810778 A 55.67938506786317 55.67938506786317 0 0 0 23.39689823143902,12.900437786457793 L 22.92377107019262,13.781431934730591 A 56.67938506786317 56.67938506786317 0 0 1 21.40063509461097,12.933012701892217 Z M 73.31036792574542,15.39337839095382 L 72.89451937218433,14.483944511828376 A 55.67938506786317 55.67938506786317 0 0 0 74.44099516841153,13.747836026043302 L 73.11012553812934,11.059195844242744 L 80.93630053099321,11.090580252351607 L 76.2154880087878,17.33268960177738 L 74.8846183785056,14.64404941997682 A 56.67938506786317 56.67938506786317 0 0 1 73.31036792574542,15.39337839095382"/><text text-anchor="middle" pointer-events="none" font-size="8px" fill="#000000" x="47.94397978003922" y="22.997883782339464" font-family="sans-serif">PRODUCED</text></g><g class="relationship" transform="translate(78.59192764365245 271.4870665093228) rotate(283.8684079284195)"><path class="outline" fill="#A5ABB6" stroke="none" d="M 25 0.5 L 26.282145814665583 0.5 L 26.282145814665583 -0.5 L 25 -0.5 Z M 70.05948956466558 0.5 L 71.34163537933117 0.5 L 71.34163537933117 3.5 L 78.34163537933117 0 L 71.34163537933117 -3.5 L 71.34163537933117 -0.5 L 70.05948956466558 -0.5 Z"/><text text-anchor="middle" pointer-events="none" font-size="8px" fill="#000000" x="48.17081768966558" y="3" font-family="sans-serif">DIRECT…</text></g><g class="relationship" transform="translate(78.59192764365245 271.4870665093228) rotate(283.8684079284195)"><path class="outline" fill="#A5ABB6" stroke="none" d="M 21.40063509461097,-12.933012701892217 L 21.90063509461097,-12.06698729810778 A 55.67938506786317 55.67938506786317 0 0 1 30.62882210788022,-16.143920078725877 L 30.285580071399956,-17.08316706668638 A 56.67938506786317 56.67938506786317 0 0 0 21.40063509461097,-12.933012701892217 Z M 65.75257315625527,-18.217811940201507 L 65.47006752376576,-17.258546300448003 A 55.67938506786317 55.67938506786317 0 0 1 74.44099516841153,-13.747836026043302 L 73.11012553812934,-11.059195844242744 L 80.93630053099321,-11.090580252351607 L 76.2154880087878,-17.33268960177738 L 74.8846183785056,-14.64404941997682 A 56.67938506786317 56.67938506786317 0 0 0 65.75257315625527,-18.217811940201507"/><text text-anchor="middle" pointer-events="none" font-size="8px" fill="#000000" x="47.943979780039214" y="-16.997883782339464" font-family="sans-serif">WROTE</text></g><g class="relationship" transform="translate(263.61500328676607 379.0093802378557) rotate(276.7452038888795)"><path class="outline" fill="#A5ABB6" stroke="none" d="M 24.018736134675446,6.953439040707552 L 24.277555179777966,5.987513214418485 A 106.58578112802127 106.58578112802127 0 0 0 27.06672170475696,6.694658390492322 L 26.83407093928293,7.667218733774092 A 107.58578112802127 107.58578112802127 0 0 1 24.018736134675446,6.953439040707552 Z M 73.56229436386596,8.408521570613743 L 73.360610564543,7.429070885234097 A 106.58578112802127 106.58578112802127 0 0 0 76.17080438700694,6.810754716681726 L 75.48665630861628,3.889805999768957 L 83.10037607286851,5.701233986588948 L 77.08300182486117,10.70535300589875 L 76.39885374647051,7.784404288985981 A 107.58578112802127 107.58578112802127 0 0 1 73.56229436386596,8.408521570613743"/><text text-anchor="middle" pointer-events="none" font-size="8px" fill="#000000" x="50.165375734239284" y="13.10586299793087" font-family="sans-serif">DIRECTED</text></g><g class="relationship" transform="translate(263.61500328676607 379.0093802378557) rotate(276.7452038888795)"><path class="outline" fill="#A5ABB6" stroke="none" d="M 24.018736134675446,-6.953439040707552 L 24.277555179777966,-5.987513214418485 A 106.58578112802127 106.58578112802127 0 0 1 32.47853143462562,-7.841631096054655 L 32.296654887556656,-8.824952468560241 A 107.58578112802127 107.58578112802127 0 0 0 24.018736134675446,-6.953439040707552 Z M 68.06573562337948,-9.392397988148787 L 67.9151418350492,-8.403802261414981 A 106.58578112802127 106.58578112802127 0 0 1 76.17080438700694,-6.810754716681726 L 75.48665630861628,-3.889805999768957 L 83.10037607286851,-5.701233986588948 L 77.08300182486117,-10.70535300589875 L 76.39885374647051,-7.784404288985981 A 107.58578112802127 107.58578112802127 0 0 0 68.06573562337948,-9.392397988148787"/><text text-anchor="middle" pointer-events="none" font-size="8px" fill="#000000" x="50.16537573423928" y="-7.1058629979308705" font-family="sans-serif">WROTE</text></g><g class="relationship" transform="translate(382.4141059317601 274.2983559261866) rotate(181.0720358375745)"><path class="outline" fill="#A5ABB6" stroke="none" d="M 24.018736134675446,6.953439040707552 L 24.277555179777966,5.987513214418485 A 104.09971797778002 104.09971797778002 0 0 0 26.457511809403933,6.5464469118208655 L 26.219633806909147,7.517741952438854 A 105.09971797778002 105.09971797778002 0 0 1 24.018736134675446,6.953439040707552 Z M 72.93487470874348,8.266996434818125 L 72.7282677801587,7.288572407588234 A 104.09971797778002 104.09971797778002 0 0 0 74.92502774094375,6.799835812034497 L 74.2418995801996,3.8786483966161853 L 81.8549864037105,5.692734672867877 L 75.8358652886026,10.69475236592558 L 75.15273712785846,7.773564950507269 A 105.09971797778002 105.09971797778002 0 0 1 72.93487470874348,8.266996434818125"/><text text-anchor="middle" pointer-events="none" font-size="8px" fill="#000000" x="49.543110871362586" y="13.021173974071402" transform="rotate(180 49.543110871362586 10.021173974071402)" font-family="sans-serif">DIRECTED</text></g><g class="relationship" transform="translate(382.4141059317601 274.2983559261866) rotate(181.0720358375745)"><path class="outline" fill="#A5ABB6" stroke="none" d="M 24.018736134675446,-6.953439040707552 L 24.277555179777966,-5.987513214418485 A 104.09971797778002 104.09971797778002 0 0 1 31.863167120592653,-7.719036930680602 L 31.677216783380715,-8.701596075002598 A 105.09971797778002 105.09971797778002 0 0 0 24.018736134675446,-6.953439040707552 Z M 67.44213351168868,-9.275220948882989 L 67.28778877088843,-8.287203893874675 A 104.09971797778002 104.09971797778002 0 0 1 74.92502774094375,-6.799835812034497 L 74.2418995801996,-3.8786483966161853 L 81.8549864037105,-5.692734672867877 L 75.8358652886026,-10.69475236592558 L 75.15273712785846,-7.773564950507269 A 105.09971797778002 105.09971797778002 0 0 0 67.44213351168868,-9.275220948882989"/><text text-anchor="middle" pointer-events="none" font-size="8px" fill="#000000" x="49.54311087136255" y="-7.021173974071402" transform="rotate(180 49.54311087136255 -10.021173974071402)" font-family="sans-serif">WROTE</text></g><g class="relationship" transform="translate(464.79441028973696 74.86954006194534) rotate(532.3289880944683)"><path class="outline" fill="#A5ABB6" stroke="none" d="M 21.40063509461097,12.933012701892217 L 21.90063509461097,12.06698729810778 A 56.728828834949056 56.728828834949056 0 0 0 31.120388903759782,16.33914810223383 L 30.782912156901027,17.28048196719866 A 57.728828834949056 57.728828834949056 0 0 1 21.40063509461097,12.933012701892217 Z M 66.26642275593943,18.405250989362756 L 65.98924108489595,17.44443346181783 A 56.728828834949056 56.728828834949056 0 0 0 75.46105483573953,13.764764657841754 L 74.12861033576786,11.076904606705304 L 81.95480237171986,11.1037041664306 L 77.23764750236842,17.348578059357024 L 75.90520300239675,14.660718008220572 A 57.728828834949056 57.728828834949056 0 0 1 66.26642275593943,18.405250989362756"/><text text-anchor="middle" pointer-events="none" font-size="8px" fill="#000000" x="48.45190029227696" y="23.138479523501132" transform="rotate(180 48.45190029227696 20.138479523501132)" font-family="sans-serif">WROTE</text></g><g class="relationship" transform="translate(464.79441028973696 74.86954006194534) rotate(532.3289880944683)"><path class="outline" fill="#A5ABB6" stroke="none" d="M 25 0.5 L 25.231505565595157 0.5 L 25.231505565595157 -0.5 L 25 -0.5 Z M 72.12213056559516 0.5 L 72.35363613119031 0.5 L 72.35363613119031 3.5 L 79.35363613119031 0 L 72.35363613119031 -3.5 L 72.35363613119031 -0.5 L 72.12213056559516 -0.5 Z"/><text text-anchor="middle" pointer-events="none" font-size="8px" fill="#000000" x="48.67681806559516" y="3" transform="rotate(180 48.67681806559516 0)" font-family="sans-serif">DIRECTED</text></g><g class="relationship" transform="translate(464.79441028973696 74.86954006194534) rotate(532.3289880944683)"><path class="outline" fill="#A5ABB6" stroke="none" d="M 21.40063509461097,-12.933012701892217 L 21.90063509461097,-12.06698729810778 A 56.728828834949056 56.728828834949056 0 0 1 23.86312340569016,-13.148920318105866 L 23.397717603232806,-14.03401773593005 A 57.728828834949056 57.728828834949056 0 0 0 21.40063509461097,-12.933012701892217 Z M 73.84239970632377,-15.633031328570752 L 73.433984176855,-14.720235209336707 A 56.728828834949056 56.728828834949056 0 0 1 75.46105483573953,-13.764764657841754 L 74.12861033576786,-11.076904606705304 L 81.95480237171986,-11.1037041664306 L 77.23764750236842,-17.348578059357024 L 75.90520300239675,-14.660718008220572 A 57.728828834949056 57.728828834949056 0 0 0 73.84239970632377,-15.633031328570752"/><text text-anchor="middle" pointer-events="none" font-size="8px" fill="#000000" x="48.45190029227694" y="-17.138479523501132" transform="rotate(180 48.45190029227694 -20.138479523501132)" font-family="sans-serif">PRODUCED</text></g><g class="relationship" transform="translate(364.3865074735093 -120.08733900947526) rotate(504.0835648264743)"><path class="outline" fill="#A5ABB6" stroke="none" d="M 21.40063509461097,12.933012701892217 L 21.90063509461097,12.06698729810778 A 57.643736910667 57.643736910667 0 0 0 31.549832794881443,16.50788173291921 L 31.217226482685277,17.45094750002523 A 58.643736910667 58.643736910667 0 0 1 21.40063509461097,12.933012701892217 Z M 66.7143392522957,18.56722248519582 L 66.44164456152743,17.605121863832963 A 57.643736910667 57.643736910667 0 0 0 76.35080575884739,13.779277642543674 L 75.01701113089223,11.09208730867487 L 82.84321564253379,11.114955232959748 L 78.12919859612094,17.36219808770208 L 76.79540396816579,14.675007753833276 A 58.643736910667 58.643736910667 0 0 1 66.7143392522957,18.56722248519582"/><text text-anchor="middle" pointer-events="none" font-size="8px" fill="#000000" x="48.894965321988494" y="23.261055548384704" transform="rotate(180 48.894965321988494 20.261055548384704)" font-family="sans-serif">WROTE</text></g><g class="relationship" transform="translate(364.3865074735093 -120.08733900947526) rotate(504.0835648264743)"><path class="outline" fill="#A5ABB6" stroke="none" d="M 25 0.5 L 27.672921712386916 0.5 L 27.672921712386916 -0.5 L 25 -0.5 Z M 70.56354671238691 0.5 L 73.23646842477383 0.5 L 73.23646842477383 3.5 L 80.23646842477383 0 L 73.23646842477383 -3.5 L 73.23646842477383 -0.5 L 70.56354671238691 -0.5 Z"/><text text-anchor="middle" pointer-events="none" font-size="8px" fill="#000000" x="49.118234212386916" y="3" transform="rotate(180 49.118234212386916 0)" font-family="sans-serif">PRODU…</text></g><g class="relationship" transform="translate(364.3865074735093 -120.08733900947526) rotate(504.0835648264743)"><path class="outline" fill="#A5ABB6" stroke="none" d="M 21.40063509461097,-12.933012701892217 L 21.90063509461097,-12.06698729810778 A 57.643736910667 57.643736910667 0 0 1 26.448253004590875,-14.429516097334997 L 26.027144800190936,-15.336526505316655 A 58.643736910667 58.643736910667 0 0 0 21.40063509461097,-12.933012701892217 Z M 72.02701872985486,-16.78308101587516 L 71.66373159465125,-15.851403787756134 A 57.643736910667 57.643736910667 0 0 1 76.35080575884739,-13.779277642543674 L 75.01701113089223,-11.09208730867487 L 82.84321564253379,-11.114955232959748 L 78.12919859612094,-17.36219808770208 L 76.79540396816579,-14.675007753833276 A 58.643736910667 58.643736910667 0 0 0 72.02701872985486,-16.78308101587516"/><text text-anchor="middle" pointer-events="none" font-size="8px" fill="#000000" x="48.8949653219885" y="-17.261055548384704" transform="rotate(180 48.8949653219885 -20.261055548384704)" font-family="sans-serif">DIRECTED</text></g><g class="relationship" transform="translate(193.96160923885375 -228.58983913970798) rotate(194.70922629082486)"><path class="outline" fill="#A5ABB6" stroke="none" d="M 24.018736134675446,-6.953439040707552 L 24.277555179777966,-5.987513214418485 A 101.17173623599543 101.17173623599543 0 0 1 31.13960425130536,-7.572420598019576 L 30.94861095800689,-8.554011939625127 A 102.17173623599543 102.17173623599543 0 0 0 24.018736134675446,-6.953439040707552 Z M 66.70810187069459,-9.135076217681288 L 66.54910120059314,-8.147797742828672 A 101.17173623599543 101.17173623599543 0 0 1 73.45902101194375,-6.786674282099424 L 72.77712225670564,-3.8651996394566526 L 80.3894449706499,-5.682489626984287 L 74.36821935226124,-10.68197380562312 L 73.68632059702313,-7.760499162980349 A 102.17173623599543 102.17173623599543 0 0 0 66.70810187069459,-9.135076217681288"/><text text-anchor="middle" pointer-events="none" font-size="8px" fill="#000000" x="48.810857737367535" y="-6.9214366087851005" transform="rotate(180 48.810857737367535 -9.9214366087851)" font-family="sans-serif">WROTE</text></g><g class="relationship" transform="translate(193.96160923885375 -228.58983913970798) rotate(194.70922629082486)"><path class="outline" fill="#A5ABB6" stroke="none" d="M 24.018736134675446,6.953439040707552 L 24.277555179777966,5.987513214418485 A 101.17173623599543 101.17173623599543 0 0 0 25.741745346044986,6.368131694998183 L 25.49739862513834,7.337819624170336 A 102.17173623599543 102.17173623599543 0 0 1 24.018736134675446,6.953439040707552 Z M 72.19595026386756,8.096635242112967 L 71.98323759282196,7.11952044866409 A 101.17173623599543 101.17173623599543 0 0 0 73.45902101194375,6.786674282099424 L 72.77712225670564,3.8651996394566526 L 80.3894449706499,5.682489626984287 L 74.36821935226124,10.68197380562312 L 73.68632059702313,7.760499162980349 A 102.17173623599543 102.17173623599543 0 0 1 72.19595026386756,8.096635242112967"/><text text-anchor="middle" pointer-events="none" font-size="8px" fill="#000000" x="48.81085773736757" y="12.9214366087851" transform="rotate(180 48.81085773736757 9.9214366087851)" font-family="sans-serif">DIRECTED</text></g><g class="relationship" transform="translate(-4.093468422720231 -215.39820788434275) rotate(337.6471961781648)"><path class="outline" fill="#A5ABB6" stroke="none" d="M 24.018736134675446,-6.953439040707552 L 24.277555179777966,-5.987513214418485 A 100.9276939703461 100.9276939703461 0 0 1 31.079357167685703,-7.560085638918537 L 30.887930943327767,-8.54159264379831 A 101.9276939703461 101.9276939703461 0 0 0 24.018736134675446,-6.953439040707552 Z M 66.6469420193002,-9.123285025199124 L 66.4875410083596,-8.13607110830415 A 100.9276939703461 100.9276939703461 0 0 1 73.33689280493195,-6.78556221170458 L 72.65509792747972,-3.8640633249890817 L 80.26735602017682,-5.681623978768615 L 74.24595264153493,-10.680894060658577 L 73.5641577640827,-7.759395173943078 A 101.9276939703461 101.9276939703461 0 0 0 66.6469420193002,-9.123285025199124"/><text text-anchor="middle" pointer-events="none" font-size="8px" fill="#000000" x="48.74985695966052" y="-6.9131239691443795" font-family="sans-serif">WROTE</text></g><g class="relationship" transform="translate(-4.093468422720231 -215.39820788434275) rotate(337.6471961781648)"><path class="outline" fill="#A5ABB6" stroke="none" d="M 24.018736134675446,6.953439040707552 L 24.277555179777966,5.987513214418485 A 100.9276939703461 100.9276939703461 0 0 0 25.682176756764104,6.353076109014339 L 25.43727481926338,7.322623962917589 A 101.9276939703461 101.9276939703461 0 0 1 24.018736134675446,6.953439040707552 Z M 72.13436172025357,8.0822461914576 L 71.92112431326392,7.105245777813707 A 100.9276939703461 100.9276939703461 0 0 0 73.33689280493195,6.78556221170458 L 72.65509792747972,3.8640633249890817 L 80.26735602017682,5.681623978768615 L 74.24595264153493,10.680894060658577 L 73.5641577640827,7.759395173943078 A 101.9276939703461 101.9276939703461 0 0 1 72.13436172025357,8.0822461914576"/><text text-anchor="middle" pointer-events="none" font-size="8px" fill="#000000" x="48.749856959660534" y="12.91312396914438" font-family="sans-serif">DIRECTED</text></g><g class="relationship" transform="translate(-2.4654768070610467 -3.574028682485892) rotate(369.0808005124295)"><path class="outline" fill="#A5ABB6" stroke="none" d="M 21.40063509461097,12.933012701892217 L 21.90063509461097,12.06698729810778 A 56.73018587439642 56.73018587439642 0 0 0 23.863727846067274,13.149239339929444 L 23.39833187073595,14.034341925026453 A 57.73018587439642 57.73018587439642 0 0 1 21.40063509461097,12.933012701892217 Z M 73.84308695381952,15.633338873516834 L 73.43468087362245,14.720538526421109 A 56.73018587439642 56.73018587439642 0 0 0 75.46237424643638,13.764786352113424 L 74.12992772825923,11.076927301456637 L 81.95611978433173,11.103720984809552 L 77.2389696040059,17.348598419655808 L 75.90652308582875,14.66073936899902 A 57.73018587439642 57.73018587439642 0 0 1 73.84308695381952,15.633338873516834"/><text text-anchor="middle" pointer-events="none" font-size="8px" fill="#000000" x="48.45255729280761" y="23.138661331781904" font-family="sans-serif">PRODUCED</text></g><g class="relationship" transform="translate(-2.4654768070610467 -3.574028682485892) rotate(369.0808005124295)"><path class="outline" fill="#A5ABB6" stroke="none" d="M 25 0.5 L 25.232160103235834 0.5 L 25.232160103235834 -0.5 L 25 -0.5 Z M 72.12278510323583 0.5 L 72.35494520647167 0.5 L 72.35494520647167 3.5 L 79.35494520647167 0 L 72.35494520647167 -3.5 L 72.35494520647167 -0.5 L 72.12278510323583 -0.5 Z"/><text text-anchor="middle" pointer-events="none" font-size="8px" fill="#000000" x="48.677472603235834" y="3" font-family="sans-serif">DIRECTED</text></g><g class="relationship" transform="translate(-2.4654768070610467 -3.574028682485892) rotate(369.0808005124295)"><path class="outline" fill="#A5ABB6" stroke="none" d="M 21.40063509461097,-12.933012701892217 L 21.90063509461097,-12.06698729810778 A 56.73018587439642 56.73018587439642 0 0 1 31.121025271846083,-16.339399371356002 L 30.783555854729233,-17.28073586406773 A 57.73018587439642 57.73018587439642 0 0 0 21.40063509461097,-12.933012701892217 Z M 66.26708716551244,-18.40549220779775 L 65.98991225447858,-17.444672730115613 A 56.73018587439642 56.73018587439642 0 0 1 75.46237424643638,-13.764786352113424 L 74.12992772825923,-11.076927301456637 L 81.95611978433173,-11.103720984809552 L 77.2389696040059,-17.348598419655808 L 75.90652308582875,-14.66073936899902 A 57.73018587439642 57.73018587439642 0 0 0 66.26708716551244,-18.40549220779775"/><text text-anchor="middle" pointer-events="none" font-size="8px" fill="#000000" x="48.452557292807604" y="-17.138661331781904" font-family="sans-serif">WROTE</text></g><g class="relationship" transform="translate(-164.4890976853902 -127.28445678961177) rotate(478.7392274993608)"><path class="outline" fill="#A5ABB6" stroke="none" d="M 21.40063509461097,12.933012701892217 L 21.90063509461097,12.06698729810778 A 56.7637754596344 56.7637754596344 0 0 0 31.136777304952144,16.345617856380287 L 30.799489212952505,17.287019334494296 A 57.7637754596344 57.7637754596344 0 0 1 21.40063509461097,12.933012701892217 Z M 66.28353266437554,18.411461935852394 L 66.00652497724593,17.450594233579544 A 56.7637754596344 56.7637754596344 0 0 0 75.49503274079167,13.76532317096262 L 74.16253628267856,11.077488877499569 L 81.98872883522431,11.104137150942547 L 77.27169468494247,17.349102228913356 L 75.93919822682936,14.661267935450304 A 57.7637754596344 57.7637754596344 0 0 1 66.28353266437554,18.411461935852394"/><text text-anchor="middle" pointer-events="none" font-size="8px" fill="#000000" x="48.468819608624656" y="23.143161472522785" transform="rotate(180 48.468819608624656 20.143161472522785)" font-family="sans-serif">WROTE</text></g><g class="relationship" transform="translate(-164.4890976853902 -127.28445678961177) rotate(478.7392274993608)"><path class="outline" fill="#A5ABB6" stroke="none" d="M 25 0.5 L 27.2483614737082 0.5 L 27.2483614737082 -0.5 L 25 -0.5 Z M 70.1389864737082 0.5 L 72.3873479474164 0.5 L 72.3873479474164 3.5 L 79.3873479474164 0 L 72.3873479474164 -3.5 L 72.3873479474164 -0.5 L 70.1389864737082 -0.5 Z"/><text text-anchor="middle" pointer-events="none" font-size="8px" fill="#000000" x="48.6936739737082" y="3" transform="rotate(180 48.6936739737082 0)" font-family="sans-serif">PRODU…</text></g><g class="relationship" transform="translate(-164.4890976853902 -127.28445678961177) rotate(478.7392274993608)"><path class="outline" fill="#A5ABB6" stroke="none" d="M 21.40063509461097,-12.933012701892217 L 21.90063509461097,-12.06698729810778 A 56.7637754596344 56.7637754596344 0 0 1 26.047872480043317,-14.238495892885027 L 25.620933818050716,-15.142776479260718 A 57.7637754596344 57.7637754596344 0 0 0 21.40063509461097,-12.933012701892217 Z M 71.58745830263557,-16.59939509820687 L 71.21862964992579,-15.669897693724053 A 56.7637754596344 56.7637754596344 0 0 1 75.49503274079167,-13.76532317096262 L 74.16253628267856,-11.077488877499569 L 81.98872883522431,-11.104137150942547 L 77.27169468494247,-17.349102228913356 L 75.93919822682936,-14.661267935450304 A 57.7637754596344 57.7637754596344 0 0 0 71.58745830263557,-16.59939509820687"/><text text-anchor="middle" pointer-events="none" font-size="8px" fill="#000000" x="48.468819608624656" y="-17.143161472522785" transform="rotate(180 48.468819608624656 -20.143161472522785)" font-family="sans-serif">DIRECTED</text></g><g class="relationship" transform="translate(-226.63205919458767 143.0173068621117) rotate(385.26099107008434)"><path class="outline" fill="#A5ABB6" stroke="none" d="M 24.018736134675446,-6.953439040707552 L 24.277555179777966,-5.987513214418485 A 102.09079158381483 102.09079158381483 0 0 1 31.366577930254653,-7.618712232530569 L 31.1771973001208,-8.600615983888162 A 103.09079158381483 103.09079158381483 0 0 0 24.018736134675446,-6.953439040707552 Z M 66.93845603804054,-9.17932602313391 L 66.78094575591629,-8.191808675931782 A 102.09079158381483 102.09079158381483 0 0 1 73.91903683313426,-6.790841307715394 L 73.23674883923195,-3.8694575442606887 L 80.84931361351228,-5.685733282519149 L 74.82875415833732,-10.686019658988334 L 74.14646616443501,-7.764635895533629 A 103.09079158381483 103.09079158381483 0 0 0 66.93845603804054,-9.17932602313391"/><text text-anchor="middle" pointer-events="none" font-size="8px" fill="#000000" x="49.04062827167838" y="-6.952742162937341" font-family="sans-serif">WROTE</text></g><g class="relationship" transform="translate(-226.63205919458767 143.0173068621117) rotate(385.26099107008434)"><path class="outline" fill="#A5ABB6" stroke="none" d="M 24.018736134675446,6.953439040707552 L 24.277555179777966,5.987513214418485 A 102.09079158381483 102.09079158381483 0 0 0 25.966204426986298,6.424558587829651 L 25.72392604359294,7.394765362151659 A 103.09079158381483 103.09079158381483 0 0 1 24.018736134675446,6.953439040707552 Z M 72.42788924737496,8.150556778126969 L 72.21713043427138,7.173018685416935 A 102.09079158381483 102.09079158381483 0 0 0 73.91903683313426,6.790841307715394 L 73.23674883923195,3.8694575442606887 L 80.84931361351228,5.685733282519149 L 74.82875415833732,10.686019658988334 L 74.14646616443501,7.764635895533629 A 103.09079158381483 103.09079158381483 0 0 1 72.42788924737496,8.150556778126969"/><text text-anchor="middle" pointer-events="none" font-size="8px" fill="#000000" x="49.0406282716784" y="12.95274216293734" font-family="sans-serif">DIRECTED</text></g><g class="relationship" transform="translate(-162.7924940649678 289.7312112873959) rotate(287.08476416537405)"><path class="outline" fill="#A5ABB6" stroke="none" d="M 24.018736134675446,-6.953439040707552 L 24.277555179777966,-5.987513214418485 A 104.75104424547668 104.75104424547668 0 0 1 26.61699279150195,-6.585551035052731 L 26.380507057046355,-7.557185996032942 A 105.75104424547668 105.75104424547668 0 0 0 24.018736134675446,-6.953439040707552 Z M 73.09924969781937,-8.304342575038646 L 72.89395499432179,-7.325642373385534 A 104.75104424547668 104.75104424547668 0 0 1 75.2513197499582,-6.802718877125264 L 74.56792228608697,-3.8815944521179397 L 82.18117631895382,-5.6949788655936056 L 76.16251636845317,-10.697551443801695 L 75.47911890458194,-7.7764270187943705 A 105.75104424547668 105.75104424547668 0 0 0 73.09924969781937,-8.304342575038646"/><text text-anchor="middle" pointer-events="none" font-size="8px" fill="#000000" x="49.706092349003015" y="-7.043361311942903" font-family="sans-serif">DIRECTED</text></g><g class="relationship" transform="translate(-162.7924940649678 289.7312112873959) rotate(287.08476416537405)"><path class="outline" fill="#A5ABB6" stroke="none" d="M 24.018736134675446,6.953439040707552 L 24.277555179777966,5.987513214418485 A 104.75104424547668 104.75104424547668 0 0 0 32.02430002453721,7.751318110601204 L 31.839434846916962,8.734082001931881 A 105.75104424547668 105.75104424547668 0 0 1 24.018736134675446,6.953439040707552 Z M 67.60547984783453,9.306075902386908 L 67.45213517366463,8.31790313869439 A 104.75104424547668 104.75104424547668 0 0 0 75.2513197499582,6.802718877125264 L 74.56792228608697,3.8815944521179397 L 82.18117631895382,5.6949788655936056 L 76.16251636845317,10.697551443801695 L 75.47911890458194,7.7764270187943705 A 105.75104424547668 105.75104424547668 0 0 1 67.60547984783453,9.306075902386908"/><text text-anchor="middle" pointer-events="none" font-size="8px" fill="#000000" x="49.70609234900301" y="13.043361311942903" font-family="sans-serif">WROTE</text></g><g class="relationship" transform="translate(-27.515510574237865 427.3711621299996) rotate(376.913219997881)"><path class="outline" fill="#A5ABB6" stroke="none" d="M 21.40063509461097,12.933012701892217 L 21.90063509461097,12.06698729810778 A 58.00717765177896 58.00717765177896 0 0 0 31.72064822883128,16.574544764925108 L 31.3899378500773,17.518277060326938 A 59.00717765177896 59.00717765177896 0 0 1 21.40063509461097,12.933012701892217 Z M 66.89225908338199,18.631207586193952 L 66.62130839909013,17.66861435606932 A 58.00717765177896 58.00717765177896 0 0 0 76.7043694854393,13.784980567737835 L 75.37004432382815,11.098053631051357 L 83.19625319797628,11.119376346759568 L 78.48346970092084,17.36754981665314 L 77.14914453930969,14.680622879966661 A 59.00717765177896 59.00717765177896 0 0 1 66.89225908338199,18.631207586193952"/><text text-anchor="middle" pointer-events="none" font-size="8px" fill="#000000" x="49.071035238824514" y="23.30974906080366" font-family="sans-serif">WROTE</text></g><g class="relationship" transform="translate(-27.515510574237865 427.3711621299996) rotate(376.913219997881)"><path class="outline" fill="#A5ABB6" stroke="none" d="M 25 0.5 L 27.848343001848463 0.5 L 27.848343001848463 -0.5 L 25 -0.5 Z M 70.73896800184846 0.5 L 73.58731100369693 0.5 L 73.58731100369693 3.5 L 80.58731100369693 0 L 73.58731100369693 -3.5 L 73.58731100369693 -0.5 L 70.73896800184846 -0.5 Z"/><text text-anchor="middle" pointer-events="none" font-size="8px" fill="#000000" x="49.29365550184846" y="3" font-family="sans-serif">PRODU…</text></g><g class="relationship" transform="translate(-27.515510574237865 427.3711621299996) rotate(376.913219997881)"><path class="outline" fill="#A5ABB6" stroke="none" d="M 21.40063509461097,-12.933012701892217 L 21.90063509461097,-12.06698729810778 A 58.00717765177896 58.00717765177896 0 0 1 26.613988797050474,-14.507830924554902 L 26.19524346058081,-15.415934631839981 A 59.00717765177896 59.00717765177896 0 0 0 21.40063509461097,-12.933012701892217 Z M 72.2084333091301,-16.858360980202974 L 71.8473889373021,-15.925812342559162 A 58.00717765177896 58.00717765177896 0 0 1 76.7043694854393,-13.784980567737835 L 75.37004432382815,-11.098053631051357 L 83.19625319797628,-11.119376346759568 L 78.48346970092084,-17.36754981665314 L 77.14914453930969,-14.680622879966661 A 59.00717765177896 59.00717765177896 0 0 0 72.2084333091301,-16.858360980202974"/><text text-anchor="middle" pointer-events="none" font-size="8px" fill="#000000" x="49.07103523882449" y="-17.309749060803654" font-family="sans-serif">DIRECTED</text></g></g><g class="layer nodes"><g class="node" transform="translate(78.59192764365245,271.4870665093228)"><circle class="outline" cx="0" cy="0" r="25" fill="#F79767" stroke="#f36924" stroke-width="2px"/><text text-anchor="middle" pointer-events="none" font-family="sans-serif" dy="1.5625" font-size="25" fill="#FFFFFF"/><text text-anchor="middle" pointer-events="none" font-family="sans-serif" dy="1.5625" font-size="25" fill="#FFFFFF"/><text text-anchor="middle" pointer-events="none" x="0" y="0" font-size="10px" fill="#FFFFFF" font-family="sans-serif"> Cameron</text><text text-anchor="middle" pointer-events="none" x="0" y="10" font-size="10px" fill="#FFFFFF" font-family="sans-serif"> Crowe</text></g><g class="node" transform="translate(103.36217015669935,171.15796460603914)"><circle class="outline" cx="0" cy="0" r="25" fill="#57C7E3" stroke="#23b3d7" stroke-width="2px"/><text text-anchor="middle" pointer-events="none" font-family="sans-serif" dy="1.5625" font-size="25" fill="#2A2C34"/><text text-anchor="middle" pointer-events="none" font-family="sans-serif" dy="1.5625" font-size="25" fill="#2A2C34"/><text text-anchor="middle" pointer-events="none" x="0" y="0" font-size="10px" fill="#2A2C34" font-family="sans-serif"> Jerry</text><text text-anchor="middle" pointer-events="none" x="0" y="10" font-size="10px" fill="#2A2C34" font-family="sans-serif"> Maguire</text></g><g class="node" transform="translate(263.61500328676607,379.0093802378557)"><circle class="outline" cx="0" cy="0" r="25" fill="#F79767" stroke="#f36924" stroke-width="2px"/><text text-anchor="middle" pointer-events="none" font-family="sans-serif" dy="1.5625" font-size="25" fill="#FFFFFF"/><text text-anchor="middle" pointer-events="none" font-family="sans-serif" dy="1.5625" font-size="25" fill="#FFFFFF"/><text text-anchor="middle" pointer-events="none" x="0" y="0" font-size="10px" fill="#FFFFFF" font-family="sans-serif"> Lana</text><text text-anchor="middle" pointer-events="none" x="0" y="10" font-size="10px" fill="#FFFFFF" font-family="sans-serif"> Wacho…</text></g><g class="node" transform="translate(276.2344797180878,272.31144431515276)"><circle class="outline" cx="0" cy="0" r="25" fill="#57C7E3" stroke="#23b3d7" stroke-width="2px"/><text text-anchor="middle" pointer-events="none" font-family="sans-serif" dy="1.5625" font-size="25" fill="#2A2C34"/><text text-anchor="middle" pointer-events="none" font-family="sans-serif" dy="1.5625" font-size="25" fill="#2A2C34"/><text text-anchor="middle" pointer-events="none" x="0" y="0" font-size="10px" fill="#2A2C34" font-family="sans-serif"> Speed</text><text text-anchor="middle" pointer-events="none" x="0" y="10" font-size="10px" fill="#2A2C34" font-family="sans-serif"> Racer</text></g><g class="node" transform="translate(382.4141059317601,274.2983559261866)"><circle class="outline" cx="0" cy="0" r="25" fill="#F79767" stroke="#f36924" stroke-width="2px"/><text text-anchor="middle" pointer-events="none" font-family="sans-serif" dy="1.5625" font-size="25" fill="#FFFFFF"/><text text-anchor="middle" pointer-events="none" font-family="sans-serif" dy="1.5625" font-size="25" fill="#FFFFFF"/><text text-anchor="middle" pointer-events="none" x="0" y="0" font-size="10px" fill="#FFFFFF" font-family="sans-serif"> Lilly</text><text text-anchor="middle" pointer-events="none" x="0" y="10" font-size="10px" fill="#FFFFFF" font-family="sans-serif"> Wacho…</text></g><g class="node" transform="translate(464.79441028973696,74.86954006194534)"><circle class="outline" cx="0" cy="0" r="25" fill="#F79767" stroke="#f36924" stroke-width="2px"/><text text-anchor="middle" pointer-events="none" font-family="sans-serif" dy="1.5625" font-size="25" fill="#FFFFFF"/><text text-anchor="middle" pointer-events="none" font-family="sans-serif" dy="1.5625" font-size="25" fill="#FFFFFF"/><text text-anchor="middle" pointer-events="none" x="0" y="0" font-size="10px" fill="#FFFFFF" font-family="sans-serif"> Nancy</text><text text-anchor="middle" pointer-events="none" x="0" y="10" font-size="10px" fill="#FFFFFF" font-family="sans-serif"> Meyers</text></g><g class="node" transform="translate(361.3746492969891,88.79916353150756)"><circle class="outline" cx="0" cy="0" r="25" fill="#57C7E3" stroke="#23b3d7" stroke-width="2px"/><text text-anchor="middle" pointer-events="none" font-family="sans-serif" dy="1.5625" font-size="25" fill="#2A2C34"/><text text-anchor="middle" pointer-events="none" x="0" y="5" font-size="10px" fill="#2A2C34" font-family="sans-serif"> Somethi…</text></g><g class="node" transform="translate(364.3865074735093,-120.08733900947526)"><circle class="outline" cx="0" cy="0" r="25" fill="#F79767" stroke="#f36924" stroke-width="2px"/><text text-anchor="middle" pointer-events="none" font-family="sans-serif" dy="1.5625" font-size="25" fill="#FFFFFF"/><text text-anchor="middle" pointer-events="none" font-family="sans-serif" dy="1.5625" font-size="25" fill="#FFFFFF"/><text text-anchor="middle" pointer-events="none" x="0" y="0" font-size="10px" fill="#FFFFFF" font-family="sans-serif"> Cameron</text><text text-anchor="middle" pointer-events="none" x="0" y="10" font-size="10px" fill="#FFFFFF" font-family="sans-serif"> Crowe</text></g><g class="node" transform="translate(279.15829020250897,-58.35513293091705)"><circle class="outline" cx="0" cy="0" r="25" fill="#57C7E3" stroke="#23b3d7" stroke-width="2px"/><text text-anchor="middle" pointer-events="none" font-family="sans-serif" dy="1.5625" font-size="25" fill="#2A2C34"/><text text-anchor="middle" pointer-events="none" font-family="sans-serif" dy="1.5625" font-size="25" fill="#2A2C34"/><text text-anchor="middle" pointer-events="none" x="0" y="0" font-size="10px" fill="#2A2C34" font-family="sans-serif"> Jerry</text><text text-anchor="middle" pointer-events="none" x="0" y="10" font-size="10px" fill="#2A2C34" font-family="sans-serif"> Maguire</text></g><g class="node" transform="translate(193.96160923885375,-228.58983913970798)"><circle class="outline" cx="0" cy="0" r="25" fill="#F79767" stroke="#f36924" stroke-width="2px"/><text text-anchor="middle" pointer-events="none" font-family="sans-serif" dy="1.5625" font-size="25" fill="#FFFFFF"/><text text-anchor="middle" pointer-events="none" font-family="sans-serif" dy="1.5625" font-size="25" fill="#FFFFFF"/><text text-anchor="middle" pointer-events="none" x="0" y="0" font-size="10px" fill="#FFFFFF" font-family="sans-serif"> Lilly</text><text text-anchor="middle" pointer-events="none" x="0" y="10" font-size="10px" fill="#FFFFFF" font-family="sans-serif"> Wacho…</text></g><g class="node" transform="translate(92.65903739447211,-255.1835074777466)"><circle class="outline" cx="0" cy="0" r="25" fill="#57C7E3" stroke="#23b3d7" stroke-width="2px"/><text text-anchor="middle" pointer-events="none" font-family="sans-serif" dy="1.5625" font-size="25" fill="#2A2C34"/><text text-anchor="middle" pointer-events="none" font-family="sans-serif" dy="1.5625" font-size="25" fill="#2A2C34"/><text text-anchor="middle" pointer-events="none" x="0" y="0" font-size="10px" fill="#2A2C34" font-family="sans-serif"> Speed</text><text text-anchor="middle" pointer-events="none" x="0" y="10" font-size="10px" fill="#2A2C34" font-family="sans-serif"> Racer</text></g><g class="node" transform="translate(-4.093468422720231,-215.39820788434275)"><circle class="outline" cx="0" cy="0" r="25" fill="#F79767" stroke="#f36924" stroke-width="2px"/><text text-anchor="middle" pointer-events="none" font-family="sans-serif" dy="1.5625" font-size="25" fill="#FFFFFF"/><text text-anchor="middle" pointer-events="none" font-family="sans-serif" dy="1.5625" font-size="25" fill="#FFFFFF"/><text text-anchor="middle" pointer-events="none" x="0" y="0" font-size="10px" fill="#FFFFFF" font-family="sans-serif"> Lana</text><text text-anchor="middle" pointer-events="none" x="0" y="10" font-size="10px" fill="#FFFFFF" font-family="sans-serif"> Wacho…</text></g><g class="node" transform="translate(-2.4654768070610467,-3.574028682485892)"><circle class="outline" cx="0" cy="0" r="25" fill="#F79767" stroke="#f36924" stroke-width="2px"/><text text-anchor="middle" pointer-events="none" font-family="sans-serif" dy="1.5625" font-size="25" fill="#FFFFFF"/><text text-anchor="middle" pointer-events="none" font-family="sans-serif" dy="1.5625" font-size="25" fill="#FFFFFF"/><text text-anchor="middle" pointer-events="none" x="0" y="0" font-size="10px" fill="#FFFFFF" font-family="sans-serif"> Nancy</text><text text-anchor="middle" pointer-events="none" x="0" y="10" font-size="10px" fill="#FFFFFF" font-family="sans-serif"> Meyers</text></g><g class="node" transform="translate(100.5815616963097,12.896018212727567)"><circle class="outline" cx="0" cy="0" r="25" fill="#57C7E3" stroke="#23b3d7" stroke-width="2px"/><text text-anchor="middle" pointer-events="none" font-family="sans-serif" dy="1.5625" font-size="25" fill="#2A2C34"/><text text-anchor="middle" pointer-events="none" x="0" y="5" font-size="10px" fill="#2A2C34" font-family="sans-serif"> Somethi…</text></g><g class="node" transform="translate(-164.4890976853902,-127.28445678961177)"><circle class="outline" cx="0" cy="0" r="25" fill="#F79767" stroke="#f36924" stroke-width="2px"/><text text-anchor="middle" pointer-events="none" font-family="sans-serif" dy="1.5625" font-size="25" fill="#FFFFFF"/><text text-anchor="middle" pointer-events="none" font-family="sans-serif" dy="1.5625" font-size="25" fill="#FFFFFF"/><text text-anchor="middle" pointer-events="none" x="0" y="0" font-size="10px" fill="#FFFFFF" font-family="sans-serif"> Cameron</text><text text-anchor="middle" pointer-events="none" x="0" y="10" font-size="10px" fill="#FFFFFF" font-family="sans-serif"> Crowe</text></g><g class="node" transform="translate(-214.68103174388511,-35.75583740221646)"><circle class="outline" cx="0" cy="0" r="25" fill="#57C7E3" stroke="#23b3d7" stroke-width="2px"/><text text-anchor="middle" pointer-events="none" font-family="sans-serif" dy="1.5625" font-size="25" fill="#2A2C34"/><text text-anchor="middle" pointer-events="none" font-family="sans-serif" dy="1.5625" font-size="25" fill="#2A2C34"/><text text-anchor="middle" pointer-events="none" x="0" y="0" font-size="10px" fill="#2A2C34" font-family="sans-serif"> Jerry</text><text text-anchor="middle" pointer-events="none" x="0" y="10" font-size="10px" fill="#2A2C34" font-family="sans-serif"> Maguire</text></g><g class="node" transform="translate(-226.63205919458767,143.0173068621117)"><circle class="outline" cx="0" cy="0" r="25" fill="#F79767" stroke="#f36924" stroke-width="2px"/><text text-anchor="middle" pointer-events="none" font-family="sans-serif" dy="1.5625" font-size="25" fill="#FFFFFF"/><text text-anchor="middle" pointer-events="none" font-family="sans-serif" dy="1.5625" font-size="25" fill="#FFFFFF"/><text text-anchor="middle" pointer-events="none" x="0" y="0" font-size="10px" fill="#FFFFFF" font-family="sans-serif"> Lilly</text><text text-anchor="middle" pointer-events="none" x="0" y="10" font-size="10px" fill="#FFFFFF" font-family="sans-serif"> Wacho…</text></g><g class="node" transform="translate(-131.49725301884166,187.90810551843126)"><circle class="outline" cx="0" cy="0" r="25" fill="#57C7E3" stroke="#23b3d7" stroke-width="2px"/><text text-anchor="middle" pointer-events="none" font-family="sans-serif" dy="1.5625" font-size="25" fill="#2A2C34"/><text text-anchor="middle" pointer-events="none" font-family="sans-serif" dy="1.5625" font-size="25" fill="#2A2C34"/><text text-anchor="middle" pointer-events="none" x="0" y="0" font-size="10px" fill="#2A2C34" font-family="sans-serif"> Speed</text><text text-anchor="middle" pointer-events="none" x="0" y="10" font-size="10px" fill="#2A2C34" font-family="sans-serif"> Racer</text></g><g class="node" transform="translate(-162.7924940649678,289.7312112873959)"><circle class="outline" cx="0" cy="0" r="25" fill="#F79767" stroke="#f36924" stroke-width="2px"/><text text-anchor="middle" pointer-events="none" font-family="sans-serif" dy="1.5625" font-size="25" fill="#FFFFFF"/><text text-anchor="middle" pointer-events="none" font-family="sans-serif" dy="1.5625" font-size="25" fill="#FFFFFF"/><text text-anchor="middle" pointer-events="none" x="0" y="0" font-size="10px" fill="#FFFFFF" font-family="sans-serif"> Lana</text><text text-anchor="middle" pointer-events="none" x="0" y="10" font-size="10px" fill="#FFFFFF" font-family="sans-serif"> Wacho…</text></g><g class="node" transform="translate(-27.515510574237865,427.3711621299996)"><circle class="outline" cx="0" cy="0" r="25" fill="#F79767" stroke="#f36924" stroke-width="2px"/><text text-anchor="middle" pointer-events="none" font-family="sans-serif" dy="1.5625" font-size="25" fill="#FFFFFF"/><text text-anchor="middle" pointer-events="none" font-family="sans-serif" dy="1.5625" font-size="25" fill="#FFFFFF"/><text text-anchor="middle" pointer-events="none" x="0" y="0" font-size="10px" fill="#FFFFFF" font-family="sans-serif"> Nancy</text><text text-anchor="middle" pointer-events="none" x="0" y="10" font-size="10px" fill="#FFFFFF" font-family="sans-serif"> Meyers</text></g><g class="node" transform="translate(73.50477799919213,458.088934535113)"><circle class="outline" cx="0" cy="0" r="25" fill="#57C7E3" stroke="#23b3d7" stroke-width="2px"/><text text-anchor="middle" pointer-events="none" font-family="sans-serif" dy="1.5625" font-size="25" fill="#2A2C34"/><text text-anchor="middle" pointer-events="none" x="0" y="5" font-size="10px" fill="#2A2C34" font-family="sans-serif"> Somethi…</text></g></g></svg>