<svg xmlns="http://www.w3.org/2000/svg" width="646.3046875" height="651.7869873046875" viewBox="-192.64031982421875 -187.86911010742188 646.3046875 651.7869873046875"><title>Neo4j Graph Visualization</title><desc>Created using Neo4j (http://www.neo4j.com/)</desc><g class="layer relationships"><g class="relationship" transform="translate(52.23465321715365 329.68766273428685) rotate(522.7768631506968)"><path class="outline" fill="#A5ABB6" stroke="none" d="M 25 0.5 L 30.06940060530158 0.5 L 30.06940060530158 -0.5 L 25 -0.5 Z M 75.63190060530158 0.5 L 80.70130121060316 0.5 L 80.70130121060316 3.5 L 87.70130121060316 0 L 80.70130121060316 -3.5 L 80.70130121060316 -0.5 L 75.63190060530158 -0.5 Z"/><text text-anchor="middle" pointer-events="none" font-size="8px" fill="#000000" x="52.85065060530158" y="3" transform="rotate(180 52.85065060530158 0)" font-family="sans-serif">ACTED_IN</text></g><g class="relationship" transform="translate(52.23465321715365 329.68766273428685) rotate(435.55643655995664)"><path class="outline" fill="#A5ABB6" stroke="none" d="M 25 0.5 L 28.051087566625 0.5 L 28.051087566625 -0.5 L 25 -0.5 Z M 73.613587566625 0.5 L 76.66467513325 0.5 L 76.66467513325 3.5 L 83.66467513325 0 L 76.66467513325 -3.5 L 76.66467513325 -0.5 L 73.613587566625 -0.5 Z"/><text text-anchor="middle" pointer-events="none" font-size="8px" fill="#000000" x="50.832337566625" y="3" font-family="sans-serif">ACTED_IN</text></g><g class="relationship" transform="translate(52.23465321715365 329.68766273428685) rotate(370.78148807194765)"><path class="outline" fill="#A5ABB6" stroke="none" d="M 25 0.5 L 31.727994777975134 0.5 L 31.727994777975134 -0.5 L 25 -0.5 Z M 77.29049477797514 0.5 L 84.01848955595027 0.5 L 84.01848955595027 3.5 L 91.01848955595027 0 L 84.01848955595027 -3.5 L 84.01848955595027 -0.5 L 77.29049477797514 -0.5 Z"/><text text-anchor="middle" pointer-events="none" font-size="8px" fill="#000000" x="54.509244777975134" y="3" font-family="sans-serif">ACTED_IN</text></g><g class="relationship" transform="translate(52.23465321715365 329.68766273428685) rotate(221.65223257316006)"><path class="outline" fill="#A5ABB6" stroke="none" d="M 25 0.5 L 29.59001535532304 0.5 L 29.59001535532304 -0.5 L 25 -0.5 Z M 75.15251535532303 0.5 L 79.74253071064608 0.5 L 79.74253071064608 3.5 L 86.74253071064608 0 L 79.74253071064608 -3.5 L 79.74253071064608 -0.5 L 75.15251535532303 -0.5 Z"/><text text-anchor="middle" pointer-events="none" font-size="8px" fill="#000000" x="52.37126535532304" y="3" transform="rotate(180 52.37126535532304 0)" font-family="sans-serif">ACTED_IN</text></g><g class="relationship" transform="translate(52.23465321715365 329.68766273428685) rotate(307.9541574518844)"><path class="outline" fill="#A5ABB6" stroke="none" d="M 25 0.5 L 28.471852440871807 0.5 L 28.471852440871807 -0.5 L 25 -0.5 Z M 74.0343524408718 0.5 L 77.50620488174361 0.5 L 77.50620488174361 3.5 L 84.50620488174361 0 L 77.50620488174361 -3.5 L 77.50620488174361 -0.5 L 74.0343524408718 -0.5 Z"/><text text-anchor="middle" pointer-events="none" font-size="8px" fill="#000000" x="51.25310244087181" y="3" font-family="sans-serif">ACTED_IN</text></g><g class="relationship" transform="translate(323.5898975636876 17.874498110759987) rotate(383.16204317626296)"><path class="outline" fill="#A5ABB6" stroke="none" d="M 25 0.5 L 28.68662380352807 0.5 L 28.68662380352807 -0.5 L 25 -0.5 Z M 74.24912380352808 0.5 L 77.93574760705614 0.5 L 77.93574760705614 3.5 L 84.93574760705614 0 L 77.93574760705614 -3.5 L 77.93574760705614 -0.5 L 74.24912380352808 -0.5 Z"/><text text-anchor="middle" pointer-events="none" font-size="8px" fill="#000000" x="51.46787380352807" y="3" font-family="sans-serif">ACTED_IN</text></g><g class="relationship" transform="translate(323.5898975636876 17.874498110759987) rotate(290.5484091133655)"><path class="outline" fill="#A5ABB6" stroke="none" d="M 25 0.5 L 29.18791735954008 0.5 L 29.18791735954008 -0.5 L 25 -0.5 Z M 74.75041735954008 0.5 L 78.93833471908016 0.5 L 78.93833471908016 3.5 L 85.93833471908016 0 L 78.93833471908016 -3.5 L 78.93833471908016 -0.5 L 74.75041735954008 -0.5 Z"/><text text-anchor="middle" pointer-events="none" font-size="8px" fill="#000000" x="51.96916735954008" y="3" font-family="sans-serif">ACTED_IN</text></g><g class="relationship" transform="translate(323.5898975636876 17.874498110759987) rotate(443.43129201470015)"><path class="outline" fill="#A5ABB6" stroke="none" d="M 25 0.5 L 31.29521591408092 0.5 L 31.29521591408092 -0.5 L 25 -0.5 Z M 76.85771591408093 0.5 L 83.15293182816184 0.5 L 83.15293182816184 3.5 L 90.15293182816184 0 L 83.15293182816184 -3.5 L 83.15293182816184 -0.5 L 76.85771591408093 -0.5 Z"/><text text-anchor="middle" pointer-events="none" font-size="8px" fill="#000000" x="54.07646591408092" y="3" font-family="sans-serif">ACTED_IN</text></g><g class="relationship" transform="translate(323.5898975636876 17.874498110759987) rotate(231.6064620642456)"><path class="outline" fill="#A5ABB6" stroke="none" d="M 25 0.5 L 30.794414342625856 0.5 L 30.794414342625856 -0.5 L 25 -0.5 Z M 76.35691434262586 0.5 L 82.15132868525171 0.5 L 82.15132868525171 3.5 L 89.15132868525171 0 L 82.15132868525171 -3.5 L 82.15132868525171 -0.5 L 76.35691434262586 -0.5 Z"/><text text-anchor="middle" pointer-events="none" font-size="8px" fill="#000000" x="53.575664342625856" y="3" transform="rotate(180 53.575664342625856 0)" font-family="sans-serif">ACTED_IN</text></g><g class="relationship" transform="translate(323.5898975636876 17.874498110759987) rotate(515.4429292286997)"><path class="outline" fill="#A5ABB6" stroke="none" d="M 25 0.5 L 28.225504907392462 0.5 L 28.225504907392462 -0.5 L 25 -0.5 Z M 73.78800490739246 0.5 L 77.01350981478492 0.5 L 77.01350981478492 3.5 L 84.01350981478492 0 L 77.01350981478492 -3.5 L 77.01350981478492 -0.5 L 73.78800490739246 -0.5 Z"/><text text-anchor="middle" pointer-events="none" font-size="8px" fill="#000000" x="51.00675490739246" y="3" transform="rotate(180 51.00675490739246 0)" font-family="sans-serif">ACTED_IN</text></g><g class="relationship" transform="translate(-70.41350782305385 -51.22199326919479) rotate(289.85259690561054)"><path class="outline" fill="#A5ABB6" stroke="none" d="M 25 0.5 L 30.943193126270685 0.5 L 30.943193126270685 -0.5 L 25 -0.5 Z M 76.50569312627069 0.5 L 82.44888625254137 0.5 L 82.44888625254137 3.5 L 89.44888625254137 0 L 82.44888625254137 -3.5 L 82.44888625254137 -0.5 L 76.50569312627069 -0.5 Z"/><text text-anchor="middle" pointer-events="none" font-size="8px" fill="#000000" x="53.724443126270685" y="3" font-family="sans-serif">ACTED_IN</text></g><g class="relationship" transform="translate(-70.41350782305385 -51.22199326919479) rotate(210.6170303171957)"><path class="outline" fill="#A5ABB6" stroke="none" d="M 25 0.5 L 27.883179971289273 0.5 L 27.883179971289273 -0.5 L 25 -0.5 Z M 73.44567997128928 0.5 L 76.32885994257855 0.5 L 76.32885994257855 3.5 L 83.32885994257855 0 L 76.32885994257855 -3.5 L 76.32885994257855 -0.5 L 73.44567997128928 -0.5 Z"/><text text-anchor="middle" pointer-events="none" font-size="8px" fill="#000000" x="50.66442997128927" y="3" transform="rotate(180 50.66442997128927 0)" font-family="sans-serif">ACTED_IN</text></g><g class="relationship" transform="translate(-70.41350782305385 -51.22199326919479) rotate(439.7861290579154)"><path class="outline" fill="#A5ABB6" stroke="none" d="M 25 0.5 L 28.650956649729046 0.5 L 28.650956649729046 -0.5 L 25 -0.5 Z M 74.21345664972904 0.5 L 77.86441329945809 0.5 L 77.86441329945809 3.5 L 84.86441329945809 0 L 77.86441329945809 -3.5 L 77.86441329945809 -0.5 L 74.21345664972904 -0.5 Z"/><text text-anchor="middle" pointer-events="none" font-size="8px" fill="#000000" x="51.432206649729046" y="3" font-family="sans-serif">ACTED_IN</text></g><g class="relationship" transform="translate(-70.41350782305385 -51.22199326919479) rotate(500.83206698904485)"><path class="outline" fill="#A5ABB6" stroke="none" d="M 25 0.5 L 31.431529395151735 0.5 L 31.431529395151735 -0.5 L 25 -0.5 Z M 76.99402939515173 0.5 L 83.42555879030347 0.5 L 83.42555879030347 3.5 L 90.42555879030347 0 L 83.42555879030347 -3.5 L 83.42555879030347 -0.5 L 76.99402939515173 -0.5 Z"/><text text-anchor="middle" pointer-events="none" font-size="8px" fill="#000000" x="54.212779395151735" y="3" transform="rotate(180 54.212779395151735 0)" font-family="sans-serif">ACTED_IN</text></g><g class="relationship" transform="translate(-70.41350782305385 -51.22199326919479) rotate(349.7288067852936)"><path class="outline" fill="#A5ABB6" stroke="none" d="M 25 0.5 L 29.06353484992207 0.5 L 29.06353484992207 -0.5 L 25 -0.5 Z M 74.62603484992206 0.5 L 78.68956969984414 0.5 L 78.68956969984414 3.5 L 85.68956969984414 0 L 78.68956969984414 -3.5 L 78.68956969984414 -0.5 L 74.62603484992206 -0.5 Z"/><text text-anchor="middle" pointer-events="none" font-size="8px" fill="#000000" x="51.84478484992207" y="3" font-family="sans-serif">ACTED_IN</text></g></g><g class="layer nodes"><g class="node" transform="translate(52.23465321715365,329.68766273428685)"><circle class="outline" cx="0" cy="0" r="25" fill="#F79767" stroke="#f36924" stroke-width="2px"/><text text-anchor="middle" pointer-events="none" font-family="sans-serif" dy="1.5625" font-size="25" fill="#FFFFFF"/><text text-anchor="middle" pointer-events="none" font-family="sans-serif" dy="1.5625" font-size="25" fill="#FFFFFF"/><text text-anchor="middle" pointer-events="none" x="0" y="0" font-size="10px" fill="#FFFFFF" font-family="sans-serif"> Hugo</text><text text-anchor="middle" pointer-events="none" x="0" y="10" font-size="10px" fill="#FFFFFF" font-family="sans-serif"> Weaving</text></g><g class="node" transform="translate(-55.41299464740495,363.0578171209704)"><circle class="outline" cx="0" cy="0" r="25" fill="#57C7E3" stroke="#23b3d7" stroke-width="2px"/><text text-anchor="middle" pointer-events="none" font-family="sans-serif" dy="1.5625" font-size="25" fill="#2A2C34"/><text text-anchor="middle" pointer-events="none" font-family="sans-serif" dy="1.5625" font-size="25" fill="#2A2C34"/><text text-anchor="middle" pointer-events="none" x="0" y="0" font-size="10px" fill="#2A2C34" font-family="sans-serif"> Cloud</text><text text-anchor="middle" pointer-events="none" x="0" y="10" font-size="10px" fill="#2A2C34" font-family="sans-serif"> Atlas</text></g><g class="node" transform="translate(79.33847603978352,434.9178599697489)"><circle class="outline" cx="0" cy="0" r="25" fill="#57C7E3" stroke="#23b3d7" stroke-width="2px"/><text text-anchor="middle" pointer-events="none" font-family="sans-serif" dy="1.5625" font-size="25" fill="#2A2C34"/><text text-anchor="middle" pointer-events="none" font-family="sans-serif" dy="1.5625" font-size="25" fill="#2A2C34"/><text text-anchor="middle" pointer-events="none" x="0" y="0" font-size="10px" fill="#2A2C34" font-family="sans-serif"> V for</text><text text-anchor="middle" pointer-events="none" x="0" y="10" font-size="10px" fill="#2A2C34" font-family="sans-serif"> Vendetta</text></g><g class="node" transform="translate(166.20515437609413,351.39053776097603)"><circle class="outline" cx="0" cy="0" r="25" fill="#57C7E3" stroke="#23b3d7" stroke-width="2px"/><text text-anchor="middle" pointer-events="none" font-family="sans-serif" dy="1.5625" font-size="25" fill="#2A2C34"/><text text-anchor="middle" pointer-events="none" font-family="sans-serif" dy="1.5625" font-size="25" fill="#2A2C34"/><text text-anchor="middle" pointer-events="none" font-family="sans-serif" dy="1.5625" font-size="25" fill="#2A2C34"/><text text-anchor="middle" pointer-events="none" x="0" y="-5" font-size="10px" fill="#2A2C34" font-family="sans-serif"> The</text><text text-anchor="middle" pointer-events="none" x="0" y="5" font-size="10px" fill="#2A2C34" font-family="sans-serif"> Matrix</text><text text-anchor="middle" pointer-events="none" x="0" y="15" font-size="10px" fill="#2A2C34" font-family="sans-serif"> Revol…</text></g><g class="node" transform="translate(-31.258530403205466,255.42272175567516)"><circle class="outline" cx="0" cy="0" r="25" fill="#57C7E3" stroke="#23b3d7" stroke-width="2px"/><text text-anchor="middle" pointer-events="none" font-family="sans-serif" dy="1.5625" font-size="25" fill="#2A2C34"/><text text-anchor="middle" pointer-events="none" font-family="sans-serif" dy="1.5625" font-size="25" fill="#2A2C34"/><text text-anchor="middle" pointer-events="none" font-family="sans-serif" dy="1.5625" font-size="25" fill="#2A2C34"/><text text-anchor="middle" pointer-events="none" x="0" y="-5" font-size="10px" fill="#2A2C34" font-family="sans-serif"> The</text><text text-anchor="middle" pointer-events="none" x="0" y="5" font-size="10px" fill="#2A2C34" font-family="sans-serif"> Matrix</text><text text-anchor="middle" pointer-events="none" x="0" y="15" font-size="10px" fill="#2A2C34" font-family="sans-serif"> Reloa…</text></g><g class="node" transform="translate(119.58434072334188,243.34168135460015)"><circle class="outline" cx="0" cy="0" r="25" fill="#57C7E3" stroke="#23b3d7" stroke-width="2px"/><text text-anchor="middle" pointer-events="none" font-family="sans-serif" dy="1.5625" font-size="25" fill="#2A2C34"/><text text-anchor="middle" pointer-events="none" font-family="sans-serif" dy="1.5625" font-size="25" fill="#2A2C34"/><text text-anchor="middle" pointer-events="none" x="0" y="0" font-size="10px" fill="#2A2C34" font-family="sans-serif"> The</text><text text-anchor="middle" pointer-events="none" x="0" y="10" font-size="10px" fill="#2A2C34" font-family="sans-serif"> Matrix</text></g><g class="node" transform="translate(323.5898975636876,17.874498110759987)"><circle class="outline" cx="0" cy="0" r="25" fill="#F79767" stroke="#f36924" stroke-width="2px"/><text text-anchor="middle" pointer-events="none" font-family="sans-serif" dy="1.5625" font-size="25" fill="#FFFFFF"/><text text-anchor="middle" pointer-events="none" font-family="sans-serif" dy="1.5625" font-size="25" fill="#FFFFFF"/><text text-anchor="middle" pointer-events="none" x="0" y="0" font-size="10px" fill="#FFFFFF" font-family="sans-serif"> Hugo</text><text text-anchor="middle" pointer-events="none" x="0" y="10" font-size="10px" fill="#FFFFFF" font-family="sans-serif"> Weaving</text></g><g class="node" transform="translate(424.664396577198,61.11584696911826)"><circle class="outline" cx="0" cy="0" r="25" fill="#57C7E3" stroke="#23b3d7" stroke-width="2px"/><text text-anchor="middle" pointer-events="none" font-family="sans-serif" dy="1.5625" font-size="25" fill="#2A2C34"/><text text-anchor="middle" pointer-events="none" font-family="sans-serif" dy="1.5625" font-size="25" fill="#2A2C34"/><text text-anchor="middle" pointer-events="none" x="0" y="0" font-size="10px" fill="#2A2C34" font-family="sans-serif"> The</text><text text-anchor="middle" pointer-events="none" x="0" y="10" font-size="10px" fill="#2A2C34" font-family="sans-serif"> Matrix</text></g><g class="node" transform="translate(362.5291031741871,-86.00549215043473)"><circle class="outline" cx="0" cy="0" r="25" fill="#57C7E3" stroke="#23b3d7" stroke-width="2px"/><text text-anchor="middle" pointer-events="none" font-family="sans-serif" dy="1.5625" font-size="25" fill="#2A2C34"/><text text-anchor="middle" pointer-events="none" font-family="sans-serif" dy="1.5625" font-size="25" fill="#2A2C34"/><text text-anchor="middle" pointer-events="none" font-family="sans-serif" dy="1.5625" font-size="25" fill="#2A2C34"/><text text-anchor="middle" pointer-events="none" x="0" y="-5" font-size="10px" fill="#2A2C34" font-family="sans-serif"> The</text><text text-anchor="middle" pointer-events="none" x="0" y="5" font-size="10px" fill="#2A2C34" font-family="sans-serif"> Matrix</text><text text-anchor="middle" pointer-events="none" x="0" y="15" font-size="10px" fill="#2A2C34" font-family="sans-serif"> Reloa…</text></g><g class="node" transform="translate(336.76277161659,132.27149587646912)"><circle class="outline" cx="0" cy="0" r="25" fill="#57C7E3" stroke="#23b3d7" stroke-width="2px"/><text text-anchor="middle" pointer-events="none" font-family="sans-serif" dy="1.5625" font-size="25" fill="#2A2C34"/><text text-anchor="middle" pointer-events="none" font-family="sans-serif" dy="1.5625" font-size="25" fill="#2A2C34"/><text text-anchor="middle" pointer-events="none" x="0" y="0" font-size="10px" fill="#2A2C34" font-family="sans-serif"> Cloud</text><text text-anchor="middle" pointer-events="none" x="0" y="10" font-size="10px" fill="#2A2C34" font-family="sans-serif"> Atlas</text></g><g class="node" transform="translate(252.6951432296893,-71.59314770900215)"><circle class="outline" cx="0" cy="0" r="25" fill="#57C7E3" stroke="#23b3d7" stroke-width="2px"/><text text-anchor="middle" pointer-events="none" font-family="sans-serif" dy="1.5625" font-size="25" fill="#2A2C34"/><text text-anchor="middle" pointer-events="none" font-family="sans-serif" dy="1.5625" font-size="25" fill="#2A2C34"/><text text-anchor="middle" pointer-events="none" x="0" y="0" font-size="10px" fill="#2A2C34" font-family="sans-serif"> V for</text><text text-anchor="middle" pointer-events="none" x="0" y="10" font-size="10px" fill="#2A2C34" font-family="sans-serif"> Vendetta</text></g><g class="node" transform="translate(224.43690446397318,63.18045005425405)"><circle class="outline" cx="0" cy="0" r="25" fill="#57C7E3" stroke="#23b3d7" stroke-width="2px"/><text text-anchor="middle" pointer-events="none" font-family="sans-serif" dy="1.5625" font-size="25" fill="#2A2C34"/><text text-anchor="middle" pointer-events="none" font-family="sans-serif" dy="1.5625" font-size="25" fill="#2A2C34"/><text text-anchor="middle" pointer-events="none" font-family="sans-serif" dy="1.5625" font-size="25" fill="#2A2C34"/><text text-anchor="middle" pointer-events="none" x="0" y="-5" font-size="10px" fill="#2A2C34" font-family="sans-serif"> The</text><text text-anchor="middle" pointer-events="none" x="0" y="5" font-size="10px" fill="#2A2C34" font-family="sans-serif"> Matrix</text><text text-anchor="middle" pointer-events="none" x="0" y="15" font-size="10px" fill="#2A2C34" font-family="sans-serif"> Revol…</text></g><g class="node" transform="translate(-70.41350782305385,-51.22199326919479)"><circle class="outline" cx="0" cy="0" r="25" fill="#F79767" stroke="#f36924" stroke-width="2px"/><text text-anchor="middle" pointer-events="none" font-family="sans-serif" dy="1.5625" font-size="25" fill="#FFFFFF"/><text text-anchor="middle" pointer-events="none" font-family="sans-serif" dy="1.5625" font-size="25" fill="#FFFFFF"/><text text-anchor="middle" pointer-events="none" x="0" y="0" font-size="10px" fill="#FFFFFF" font-family="sans-serif"> Hugo</text><text text-anchor="middle" pointer-events="none" x="0" y="10" font-size="10px" fill="#FFFFFF" font-family="sans-serif"> Weaving</text></g><g class="node" transform="translate(-31.546494863516326,-158.86911523745874)"><circle class="outline" cx="0" cy="0" r="25" fill="#57C7E3" stroke="#23b3d7" stroke-width="2px"/><text text-anchor="middle" pointer-events="none" font-family="sans-serif" dy="1.5625" font-size="25" fill="#2A2C34"/><text text-anchor="middle" pointer-events="none" font-family="sans-serif" dy="1.5625" font-size="25" fill="#2A2C34"/><text text-anchor="middle" pointer-events="none" font-family="sans-serif" dy="1.5625" font-size="25" fill="#2A2C34"/><text text-anchor="middle" pointer-events="none" x="0" y="-5" font-size="10px" fill="#2A2C34" font-family="sans-serif"> The</text><text text-anchor="middle" pointer-events="none" x="0" y="5" font-size="10px" fill="#2A2C34" font-family="sans-serif"> Matrix</text><text text-anchor="middle" pointer-events="none" x="0" y="15" font-size="10px" fill="#2A2C34" font-family="sans-serif"> Reloa…</text></g><g class="node" transform="translate(-163.64031549834624,-106.39358221797205)"><circle class="outline" cx="0" cy="0" r="25" fill="#57C7E3" stroke="#23b3d7" stroke-width="2px"/><text text-anchor="middle" pointer-events="none" font-family="sans-serif" dy="1.5625" font-size="25" fill="#2A2C34"/><text text-anchor="middle" pointer-events="none" font-family="sans-serif" dy="1.5625" font-size="25" fill="#2A2C34"/><text text-anchor="middle" pointer-events="none" x="0" y="0" font-size="10px" fill="#2A2C34" font-family="sans-serif"> The</text><text text-anchor="middle" pointer-events="none" x="0" y="10" font-size="10px" fill="#2A2C34" font-family="sans-serif"> Matrix</text></g><g class="node" transform="translate(-50.93202017842715,56.901366597146776)"><circle class="outline" cx="0" cy="0" r="25" fill="#57C7E3" stroke="#23b3d7" stroke-width="2px"/><text text-anchor="middle" pointer-events="none" font-family="sans-serif" dy="1.5625" font-size="25" fill="#2A2C34"/><text text-anchor="middle" pointer-events="none" font-family="sans-serif" dy="1.5625" font-size="25" fill="#2A2C34"/><text text-anchor="middle" pointer-events="none" x="0" y="0" font-size="10px" fill="#2A2C34" font-family="sans-serif"> Cloud</text><text text-anchor="middle" pointer-events="none" x="0" y="10" font-size="10px" fill="#2A2C34" font-family="sans-serif"> Atlas</text></g><g class="node" transform="translate(-159.90272401663458,21.6802687472363)"><circle class="outline" cx="0" cy="0" r="25" fill="#57C7E3" stroke="#23b3d7" stroke-width="2px"/><text text-anchor="middle" pointer-events="none" font-family="sans-serif" dy="1.5625" font-size="25" fill="#2A2C34"/><text text-anchor="middle" pointer-events="none" font-family="sans-serif" dy="1.5625" font-size="25" fill="#2A2C34"/><text text-anchor="middle" pointer-events="none" font-family="sans-serif" dy="1.5625" font-size="25" fill="#2A2C34"/><text text-anchor="middle" pointer-events="none" x="0" y="-5" font-size="10px" fill="#2A2C34" font-family="sans-serif"> The</text><text text-anchor="middle" pointer-events="none" x="0" y="5" font-size="10px" fill="#2A2C34" font-family="sans-serif"> Matrix</text><text text-anchor="middle" pointer-events="none" x="0" y="15" font-size="10px" fill="#2A2C34" font-family="sans-serif"> Revol…</text></g><g class="node" transform="translate(38.50224055187004,-70.95877609383274)"><circle class="outline" cx="0" cy="0" r="25" fill="#57C7E3" stroke="#23b3d7" stroke-width="2px"/><text text-anchor="middle" pointer-events="none" font-family="sans-serif" dy="1.5625" font-size="25" fill="#2A2C34"/><text text-anchor="middle" pointer-events="none" font-family="sans-serif" dy="1.5625" font-size="25" fill="#2A2C34"/><text text-anchor="middle" pointer-events="none" x="0" y="0" font-size="10px" fill="#2A2C34" font-family="sans-serif"> V for</text><text text-anchor="middle" pointer-events="none" x="0" y="10" font-size="10px" fill="#2A2C34" font-family="sans-serif"> Vendetta</text></g></g></svg>