<svg xmlns="http://www.w3.org/2000/svg" width="709.4785766601562" height="672.988037109375" viewBox="-259.56097412109375 -243.93203735351562 709.4785766601562 672.988037109375"><title>Neo4j Graph Visualization</title><desc>Created using Neo4j (http://www.neo4j.com/)</desc><g class="layer relationships"><g class="relationship" transform="translate(292.3082486220448 7.7812384037062605) rotate(391.0830777417719)"><path class="outline" fill="#A5ABB6" stroke="none" d="M 24.018736134675446,-6.953439040707552 L 24.277555179777966,-5.987513214418485 A 93.61508651900992 93.61508651900992 0 0 1 36.02258615488357,-8.341191419814294 L 35.88922798806289,-9.3322593283565 A 94.61508651900992 94.61508651900992 0 0 0 24.018736134675446,-6.953439040707552 Z M 57.964364878510445,-9.703514447711981 L 57.86440785530578,-8.70852269221244 A 93.61508651900992 93.61508651900992 0 0 1 69.68194179007432,-6.751114865177069 L 69.00336464729862,-3.828866918595127 L 76.61361652256146,-5.654809523130776 L 70.58671131377524,-10.64744546061966 L 69.90813417099955,-7.725197514037717 A 94.61508651900992 94.61508651900992 0 0 0 57.964364878510445,-9.703514447711981"/><text text-anchor="middle" pointer-events="none" font-size="8px" fill="#000000" x="46.924338072013526" y="-6.664063085483221" font-family="sans-serif">road</text></g><g class="relationship" transform="translate(378.7772387479237 59.90784234630349) rotate(427.81617455068533)"><path class="outline" fill="#A5ABB6" stroke="none" d="M 21.40063509461097,-12.933012701892217 L 21.90063509461097,-12.06698729810778 A 64.23027204357054 64.23027204357054 0 0 1 29.67656739931069,-15.882086459760409 L 29.29763075553352,-16.807509076732188 A 65.23027204357054 65.23027204357054 0 0 0 21.40063509461097,-12.933012701892217 Z M 75.10229803386453,-18.169946410871404 L 74.77903513372847,-17.22363721330666 A 64.23027204357054 64.23027204357054 0 0 1 82.76797619245468,-13.877456467932307 L 81.4250484345018,-11.194818766542188 L 89.2512854553571,-11.191064649607286 L 84.55854653639184,-17.454306736452466 L 83.21561877843897,-14.771669035062347 A 65.23027204357054 65.23027204357054 0 0 0 75.10229803386453,-18.169946410871404"/><text text-anchor="middle" pointer-events="none" font-size="8px" fill="#000000" x="52.0912521198408" y="-18.143596451651234" font-family="sans-serif">twowheeler</text></g><g class="relationship" transform="translate(420.91759159257543 163.25301032190234) rotate(499.4709109944123)"><path class="outline" fill="#A5ABB6" stroke="none" d="M 21.40063509461097,12.933012701892217 L 21.90063509461097,12.06698729810778 A 70.64703464203791 70.64703464203791 0 0 0 32.682310421719535,17.13213597595565 L 32.33492369673863,18.06985793011212 A 71.64703464203791 71.64703464203791 0 0 1 21.40063509461097,12.933012701892217 Z M 78.28084803988338,19.367801116932995 L 77.98695317417881,18.41196336505641 A 70.64703464203791 70.64703464203791 0 0 0 89.03738036975902,13.96355771998914 L 87.68644349964165,11.284944352413014 L 95.5126343724562,11.257807250977988 L 90.8386295299155,17.53504221009064 L 89.48769265979813,14.856428842514514 A 71.64703464203791 71.64703464203791 0 0 1 78.28084803988338,19.367801116932995"/><text text-anchor="middle" pointer-events="none" font-size="8px" fill="#000000" x="55.21509534633111" y="25.003523604078964" transform="rotate(180 55.21509534633111 22.003523604078964)" font-family="sans-serif">twowheeler</text></g><g class="relationship" transform="translate(331.35446581238693 239.82582047356775) rotate(477.6228674238722)"><path class="outline" fill="#A5ABB6" stroke="none" d="M 25 0.5 L 51.70378844357124 0.5 L 51.70378844357124 -0.5 L 25 -0.5 Z M 71.03972594357124 0.5 L 97.74351438714248 0.5 L 97.74351438714248 3.5 L 104.74351438714248 0 L 97.74351438714248 -3.5 L 97.74351438714248 -0.5 L 71.03972594357124 -0.5 Z"/><text text-anchor="middle" pointer-events="none" font-size="8px" fill="#000000" x="61.37175719357124" y="3" transform="rotate(180 61.37175719357124 0)" font-family="sans-serif">trek</text></g><g class="relationship" transform="translate(420.91759159257543 163.25301032190234) rotate(499.4709109944123)"><path class="outline" fill="#A5ABB6" stroke="none" d="M 25 0.5 L 44.41134684279528 0.5 L 44.41134684279528 -0.5 L 25 -0.5 Z M 66.42306559279528 0.5 L 85.83441243559056 0.5 L 85.83441243559056 3.5 L 92.83441243559056 0 L 85.83441243559056 -3.5 L 85.83441243559056 -0.5 L 66.42306559279528 -0.5 Z"/><text text-anchor="middle" pointer-events="none" font-size="8px" fill="#000000" x="55.41720621779528" y="3" transform="rotate(180 55.41720621779528 0)" font-family="sans-serif">road</text></g><g class="relationship" transform="translate(420.91759159257543 163.25301032190234) rotate(499.4709109944123)"><path class="outline" fill="#A5ABB6" stroke="none" d="M 21.40063509461097,-12.933012701892217 L 21.90063509461097,-12.06698729810778 A 70.64703464203791 70.64703464203791 0 0 1 45.680913291165844,-20.582472708881042 L 45.517520175192146,-21.569033750911586 A 71.64703464203791 71.64703464203791 0 0 0 21.40063509461097,-12.933012701892217 Z M 64.92173356349258,-22.117190457366462 L 64.8142960235257,-21.122978621284304 A 70.64703464203791 70.64703464203791 0 0 1 89.03738036975902,-13.96355771998914 L 87.68644349964165,-11.284944352413014 L 95.5126343724562,-11.257807250977988 L 90.8386295299155,-17.53504221009064 L 89.48769265979813,-14.856428842514514 A 71.64703464203791 71.64703464203791 0 0 0 64.92173356349258,-22.117190457366462"/><text text-anchor="middle" pointer-events="none" font-size="8px" fill="#000000" x="55.215095346331104" y="-19.003523604078964" transform="rotate(180 55.215095346331104 -22.003523604078964)" font-family="sans-serif">trek</text></g><g class="relationship" transform="translate(378.7772387479237 59.90784234630349) rotate(427.81617455068533)"><path class="outline" fill="#A5ABB6" stroke="none" d="M 25 0.5 L 42.63533106680405 0.5 L 42.63533106680405 -0.5 L 25 -0.5 Z M 61.97126856680405 0.5 L 79.6065996336081 0.5 L 79.6065996336081 3.5 L 86.6065996336081 0 L 79.6065996336081 -3.5 L 79.6065996336081 -0.5 L 61.97126856680405 -0.5 Z"/><text text-anchor="middle" pointer-events="none" font-size="8px" fill="#000000" x="52.30329981680405" y="3" font-family="sans-serif">trek</text></g><g class="relationship" transform="translate(378.7772387479237 59.90784234630349) rotate(427.81617455068533)"><path class="outline" fill="#A5ABB6" stroke="none" d="M 21.40063509461097,12.933012701892217 L 21.90063509461097,12.06698729810778 A 64.23027204357054 64.23027204357054 0 0 0 41.27015535723672,19.394915527568003 L 41.07171908484302,20.375029319838312 A 65.23027204357054 65.23027204357054 0 0 1 21.40063509461097,12.933012701892217 Z M 63.13698452813824,21.031349804494667 L 62.997153539764476,20.041174418671318 A 64.23027204357054 64.23027204357054 0 0 0 82.76797619245468,13.877456467932307 L 81.4250484345018,11.194818766542188 L 89.2512854553571,11.191064649607286 L 84.55854653639184,17.454306736452466 L 83.21561877843897,14.771669035062347 A 65.23027204357054 65.23027204357054 0 0 1 63.13698452813824,21.031349804494667"/><text text-anchor="middle" pointer-events="none" font-size="8px" fill="#000000" x="52.091252119840796" y="24.143596451651234" font-family="sans-serif">road</text></g><g class="relationship" transform="translate(292.3082486220448 7.7812384037062605) rotate(391.0830777417719)"><path class="outline" fill="#A5ABB6" stroke="none" d="M 24.018736134675446,6.953439040707552 L 24.277555179777966,5.987513214418485 A 93.61508651900992 93.61508651900992 0 0 0 37.34269934253636,8.509281999037114 L 37.2234426761975,9.502145457692805 A 94.61508651900992 94.61508651900992 0 0 1 24.018736134675446,6.953439040707552 Z M 56.62519210644111,9.828440095691036 L 56.53938898639649,8.832127983654559 A 93.61508651900992 93.61508651900992 0 0 0 69.68194179007432,6.751114865177069 L 69.00336464729862,3.828866918595127 L 76.61361652256146,5.654809523130776 L 70.58671131377524,10.64744546061966 L 69.90813417099955,7.725197514037717 A 94.61508651900992 94.61508651900992 0 0 1 56.62519210644111,9.828440095691036"/><text text-anchor="middle" pointer-events="none" font-size="8px" fill="#000000" x="46.92433807201355" y="12.664063085483221" font-family="sans-serif">trek</text></g><g class="relationship" transform="translate(15.718371137751209 -135.6381946259436) rotate(244.13166661420132)"><path class="outline" fill="#A5ABB6" stroke="none" d="M 24.018736134675446,-6.953439040707552 L 24.277555179777966,-5.987513214418485 A 67.69424059907688 67.69424059907688 0 0 1 30.955543625709996,-7.42017090287419 L 30.795373865787923,-8.40726038615648 A 68.69424059907688 68.69424059907688 0 0 0 24.018736134675446,-6.953439040707552 Z M 50.20436306210558,-8.77785379682473 L 50.08199109761155,-7.785369488482331 A 67.69424059907688 67.69424059907688 0 0 1 56.80980215598455,-6.608680872438586 L 56.14453042241178,-3.6833751584132823 L 63.74639411097238,-5.543931113106356 L 57.69683113408157,-10.509088491138991 L 57.031559400508804,-7.583782777113687 A 68.69424059907688 68.69424059907688 0 0 0 50.20436306210558,-8.77785379682473"/><text text-anchor="middle" pointer-events="none" font-size="8px" fill="#000000" x="40.49625677910656" y="-5.781710891924547" transform="rotate(180 40.49625677910656 -8.781710891924547)" font-family="sans-serif">trek</text></g><g class="relationship" transform="translate(-22.73050543255612 -214.9320342109628) rotate(393.5975913622216)"><path class="outline" fill="#A5ABB6" stroke="none" d="M 21.40063509461097,-12.933012701892217 L 21.90063509461097,-12.06698729810778 A 80.39465199090351 80.39465199090351 0 0 1 50.42223476877948,-21.985476309865447 L 50.27700463179718,-22.974874211274226 A 81.39465199090351 81.39465199090351 0 0 0 21.40063509461097,-12.933012701892217 Z M 69.67949558974644,-23.483966737516397 L 69.58635022559486,-22.48831421723783 A 80.39465199090351 80.39465199090351 0 0 1 98.58883970915765,-14.079171811158732 L 97.22714918439897,-11.406009093555774 L 105.05316780435767,-11.347421039655641 L 100.40442707550255,-17.643388767962676 L 99.04273655074387,-14.970226050359718 A 81.39465199090351 81.39465199090351 0 0 0 69.67949558974644,-23.483966737516397"/><text text-anchor="middle" pointer-events="none" font-size="8px" fill="#000000" x="59.976135919380155" y="-20.309996356470876" font-family="sans-serif">trek</text></g><g class="relationship" transform="translate(83.32792157678884 -144.47341027136957) rotate(483.3776437562559)"><path class="outline" fill="#A5ABB6" stroke="none" d="M 21.40063509461097,12.933012701892217 L 21.90063509461097,12.06698729810778 A 87.40058293669746 87.40058293669746 0 0 0 52.52607885281753,22.792933717931675 L 52.376482050704524,23.781680802275062 A 88.40058293669746 88.40058293669746 0 0 1 21.40063509461097,12.933012701892217 Z M 74.44874072154549,24.33255178511854 L 74.34865298609559,23.337573169663656 A 87.40058293669746 87.40058293669746 0 0 0 105.47102323176604,14.152705055237094 L 104.1024935722665,11.483037178689507 L 111.92833655362699,11.404413829162785 L 107.29572944443208,17.71226222396721 L 105.92719978493254,15.042594347419621 A 88.40058293669746 88.40058293669746 0 0 1 74.44874072154549,24.33255178511854"/><text text-anchor="middle" pointer-events="none" font-size="8px" fill="#000000" x="63.407820379158565" y="27.2490820140751" transform="rotate(180 63.407820379158565 24.2490820140751)" font-family="sans-serif">road</text></g><g class="relationship" transform="translate(9.510568354812314 -32.42841198174977) rotate(468.5925107367627)"><path class="outline" fill="#A5ABB6" stroke="none" d="M 25 0.5 L 51.87141461853051 0.5 L 51.87141461853051 -0.5 L 25 -0.5 Z M 71.20735211853051 0.5 L 98.07876673706102 0.5 L 98.07876673706102 3.5 L 105.07876673706102 0 L 98.07876673706102 -3.5 L 98.07876673706102 -0.5 L 71.20735211853051 -0.5 Z"/><text text-anchor="middle" pointer-events="none" font-size="8px" fill="#000000" x="61.53938336853051" y="3" transform="rotate(180 61.53938336853051 0)" font-family="sans-serif">trek</text></g><g class="relationship" transform="translate(83.32792157678884 -144.47341027136957) rotate(483.3776437562559)"><path class="outline" fill="#A5ABB6" stroke="none" d="M 25 0.5 L 40.35536255409512 0.5 L 40.35536255409512 -0.5 L 25 -0.5 Z M 86.82020630409512 0.5 L 102.17556885819025 0.5 L 102.17556885819025 3.5 L 109.17556885819025 0 L 102.17556885819025 -3.5 L 102.17556885819025 -0.5 L 86.82020630409512 -0.5 Z"/><text text-anchor="middle" pointer-events="none" font-size="8px" fill="#000000" x="63.58778442909512" y="3" transform="rotate(180 63.58778442909512 0)" font-family="sans-serif">twowheeler</text></g><g class="relationship" transform="translate(83.32792157678884 -144.47341027136957) rotate(483.3776437562559)"><path class="outline" fill="#A5ABB6" stroke="none" d="M 21.40063509461097,-12.933012701892217 L 21.90063509461097,-12.06698729810778 A 87.40058293669746 87.40058293669746 0 0 1 53.842853365319954,-22.981922074849933 L 53.70832253265771,-23.972831482950994 A 88.40058293669746 88.40058293669746 0 0 0 21.40063509461097,-12.933012701892217 Z M 73.1090229758437,-24.45702673819727 L 73.02409031857536,-23.460640044323185 A 87.40058293669746 87.40058293669746 0 0 1 105.47102323176604,-14.152705055237094 L 104.1024935722665,-11.483037178689507 L 111.92833655362699,-11.404413829162785 L 107.29572944443208,-17.71226222396721 L 105.92719978493254,-15.042594347419621 A 88.40058293669746 88.40058293669746 0 0 0 73.1090229758437,-24.45702673819727"/><text text-anchor="middle" pointer-events="none" font-size="8px" fill="#000000" x="63.40782037915855" y="-21.2490820140751" transform="rotate(180 63.40782037915855 -24.2490820140751)" font-family="sans-serif">trek</text></g><g class="relationship" transform="translate(-22.73050543255612 -214.9320342109628) rotate(393.5975913622216)"><path class="outline" fill="#A5ABB6" stroke="none" d="M 25 0.5 L 49.158902517191144 0.5 L 49.158902517191144 -0.5 L 25 -0.5 Z M 71.17062126719114 0.5 L 95.32952378438229 0.5 L 95.32952378438229 3.5 L 102.32952378438229 0 L 95.32952378438229 -3.5 L 95.32952378438229 -0.5 L 71.17062126719114 -0.5 Z"/><text text-anchor="middle" pointer-events="none" font-size="8px" fill="#000000" x="60.164761892191144" y="3" font-family="sans-serif">road</text></g><g class="relationship" transform="translate(-22.73050543255612 -214.9320342109628) rotate(393.5975913622216)"><path class="outline" fill="#A5ABB6" stroke="none" d="M 21.40063509461097,12.933012701892217 L 21.90063509461097,12.06698729810778 A 80.39465199090351 80.39465199090351 0 0 0 37.310716359030636,18.921229193320684 L 37.00239678655662,19.872512033084675 A 81.39465199090351 81.39465199090351 0 0 1 21.40063509461097,12.933012701892217 Z M 83.0985286869727,21.08200602486312 L 82.84051950475693,20.11586356026882 A 80.39465199090351 80.39465199090351 0 0 0 98.58883970915765,14.079171811158732 L 97.22714918439897,11.406009093555774 L 105.05316780435767,11.347421039655641 L 100.40442707550255,17.643388767962676 L 99.04273655074387,14.970226050359718 A 81.39465199090351 81.39465199090351 0 0 1 83.0985286869727,21.08200602486312"/><text text-anchor="middle" pointer-events="none" font-size="8px" fill="#000000" x="59.976135919380155" y="26.309996356470876" font-family="sans-serif">twowheeler</text></g><g class="relationship" transform="translate(15.718371137751209 -135.6381946259436) rotate(244.13166661420132)"><path class="outline" fill="#A5ABB6" stroke="none" d="M 24.018736134675446,6.953439040707552 L 24.277555179777966,5.987513214418485 A 67.69424059907688 67.69424059907688 0 0 0 29.64677929627605,7.19460701184768 L 29.467276069904663,8.178364396431022 A 68.69424059907688 68.69424059907688 0 0 1 24.018736134675446,6.953439040707552 Z M 51.54023067375502,8.599823311546402 L 51.398412135574475,7.609930639471131 A 67.69424059907688 67.69424059907688 0 0 0 56.80980215598455,6.608680872438586 L 56.14453042241178,3.6833751584132823 L 63.74639411097238,5.543931113106356 L 57.69683113408157,10.509088491138991 L 57.031559400508804,7.583782777113687 A 68.69424059907688 68.69424059907688 0 0 1 51.54023067375502,8.599823311546402"/><text text-anchor="middle" pointer-events="none" font-size="8px" fill="#000000" x="40.496256779106574" y="11.781710891924547" transform="rotate(180 40.496256779106574 8.781710891924547)" font-family="sans-serif">road</text></g><g class="relationship" transform="translate(292.3082486220448 7.7812384037062605) rotate(457.2946002261482)"><path class="outline" fill="#A5ABB6" stroke="none" d="M 21.40063509461097,12.933012701892217 L 21.90063509461097,12.06698729810778 A 73.57409127994423 73.57409127994423 0 0 0 27.066154599078637,14.782070860366488 L 26.636363002806156,15.68499897698129 A 74.57409127994423 74.57409127994423 0 0 1 21.40063509461097,12.933012701892217 Z M 86.97410266385985,17.351211878372496 L 86.59479637338033,16.42594070838898 A 73.57409127994423 73.57409127994423 0 0 0 91.90228224441717,14.000066797851275 L 90.54794945150009,11.32316883826644 L 98.37409961560128,11.28610660764225 L 93.70805930163992,17.56926407729772 L 92.35372650872284,14.892366117712886 A 74.57409127994423 74.57409127994423 0 0 1 86.97410266385985,17.351211878372496"/><text text-anchor="middle" pointer-events="none" font-size="8px" fill="#000000" x="56.642921113543714" y="25.39581906463593" transform="rotate(180 56.642921113543714 22.39581906463593)" font-family="sans-serif">PublicTransport</text></g><g class="relationship" transform="translate(276.98517193647524 127.4860741567338) rotate(424.17431678999543)"><path class="outline" fill="#A5ABB6" stroke="none" d="M 25 0.5 L 49.23443248403877 0.5 L 49.23443248403877 -0.5 L 25 -0.5 Z M 68.57036998403876 0.5 L 92.80480246807754 0.5 L 92.80480246807754 3.5 L 99.80480246807754 0 L 92.80480246807754 -3.5 L 92.80480246807754 -0.5 L 68.57036998403876 -0.5 Z"/><text text-anchor="middle" pointer-events="none" font-size="8px" fill="#000000" x="58.90240123403877" y="3" font-family="sans-serif">trek</text></g><g class="relationship" transform="translate(276.98517193647524 127.4860741567338) rotate(504.89688112615767)"><path class="outline" fill="#A5ABB6" stroke="none" d="M 24.018736134675446,-6.953439040707552 L 24.277555179777966,-5.987513214418485 A 160.18128909421586 160.18128909421586 0 0 1 40.62424316984414,-9.464992885448027 L 40.46747529490327,-10.452628361413986 A 161.18128909421586 161.18128909421586 0 0 0 24.018736134675446,-6.953439040707552 Z M 86.91085470577164,-11.04854032139221 L 86.77947884100261,-10.05720769197049 A 160.18128909421586 160.18128909421586 0 0 1 103.21000925107374,-7.00029036388899 L 102.50815788010748,-4.083544805381569 L 110.13272411608544,-5.848761424718926 L 104.14581107902877,-10.889284441898884 L 103.44395970806251,-7.972538883391463 A 161.18128909421586 161.18128909421586 0 0 0 86.91085470577164,-11.04854032139221"/><text text-anchor="middle" pointer-events="none" font-size="8px" fill="#000000" x="63.67400205804702" y="-8.932333205455649" transform="rotate(180 63.67400205804702 -11.932333205455649)" font-family="sans-serif">twowheeler</text></g><g class="relationship" transform="translate(166.99820166156601 204.79515628363956) rotate(445.8169638264504)"><path class="outline" fill="#A5ABB6" stroke="none" d="M 24.018736134675446,-6.953439040707552 L 24.277555179777966,-5.987513214418485 A 108.21327654617042 108.21327654617042 0 0 1 40.97797441278455,-9.082421528586138 L 40.87348411334089,-10.076947434393603 A 109.21327654617042 109.21327654617042 0 0 0 24.018736134675446,-6.953439040707552 Z M 60.27035215866713,-10.38248284328381 L 60.197237054640205,-9.385159334304333 A 108.21327654617042 108.21327654617042 0 0 1 76.98684747483405,-6.817778963303859 L 76.3020432757461,-3.8969840014978265 L 83.91616975222945,-5.706701659066299 L 77.89991974028466,-10.712172245711901 L 77.21511554119671,-7.79137728390587 A 109.21327654617042 109.21327654617042 0 0 0 60.27035215866713,-10.38248284328381"/><text text-anchor="middle" pointer-events="none" font-size="8px" fill="#000000" x="50.57299568990763" y="-7.161306796394655" font-family="sans-serif">trek</text></g><g class="relationship" transform="translate(174.89471912384352 312.7629024448591) rotate(383.5719231848018)"><path class="outline" fill="#A5ABB6" stroke="none" d="M 24.018736134675446,6.953439040707552 L 24.277555179777966,5.987513214418485 A 101.84523510840314 101.84523510840314 0 0 0 26.111776496832164,6.460753336907388 L 25.87096734011668,7.431325822630114 A 102.84523510840314 102.84523510840314 0 0 1 24.018736134675446,6.953439040707552 Z M 72.1567708311364,8.181172007997247 L 71.94752701804504,7.203308506948659 A 101.84523510840314 101.84523510840314 0 0 0 73.79611508751913,6.7897311830208515 L 73.11393078942922,3.8683232033919226 L 80.72643108966827,5.684869150749222 L 74.705694151639,10.68494182252609 L 74.02350985354909,7.763533842897161 A 102.84523510840314 102.84523510840314 0 0 1 72.1567708311364,8.181172007997247"/><text text-anchor="middle" pointer-events="none" font-size="8px" fill="#000000" x="48.97923065129023" y="12.944377769222527" font-family="sans-serif">twowheeler</text></g><g class="relationship" transform="translate(174.89471912384352 312.7629024448591) rotate(383.5719231848018)"><path class="outline" fill="#A5ABB6" stroke="none" d="M 24.018736134675446,-6.953439040707552 L 24.277555179777966,-5.987513214418485 A 101.84523510840314 101.84523510840314 0 0 1 39.389510702527474,-8.834825605169186 L 39.27907322389357,-9.828708678429308 A 102.84523510840314 102.84523510840314 0 0 0 24.018736134675446,-6.953439040707552 Z M 58.67804455244265,-10.142978790507655 L 58.59985908410091,-9.14603995961572 A 101.84523510840314 101.84523510840314 0 0 1 73.79611508751913,-6.7897311830208515 L 73.11393078942922,-3.8683232033919226 L 80.72643108966827,-5.684869150749222 L 74.705694151639,-10.68494182252609 L 74.02350985354909,-7.763533842897161 A 102.84523510840314 102.84523510840314 0 0 0 58.67804455244265,-10.142978790507655"/><text text-anchor="middle" pointer-events="none" font-size="8px" fill="#000000" x="48.979230651290216" y="-6.944377769222527" font-family="sans-serif">trek</text></g><g class="relationship" transform="translate(166.99820166156601 204.79515628363956) rotate(445.8169638264504)"><path class="outline" fill="#A5ABB6" stroke="none" d="M 24.018736134675446,6.953439040707552 L 24.277555179777966,5.987513214418485 A 108.21327654617042 108.21327654617042 0 0 0 27.672536988004843,6.838596815747266 L 27.44509100466132,7.81238751433753 A 109.21327654617042 109.21327654617042 0 0 1 24.018736134675446,6.953439040707552 Z M 73.76340729533047,8.541983945777133 L 73.56674443627433,7.561512773397311 A 108.21327654617042 108.21327654617042 0 0 0 76.98684747483405,6.817778963303859 L 76.3020432757461,3.8969840014978265 L 83.91616975222945,5.706701659066299 L 77.89991974028466,10.712172245711901 L 77.21511554119671,7.79137728390587 A 109.21327654617042 109.21327654617042 0 0 1 73.76340729533047,8.541983945777133"/><text text-anchor="middle" pointer-events="none" font-size="8px" fill="#000000" x="50.57299568990768" y="13.161306796394655" font-family="sans-serif">twowheeler</text></g><g class="relationship" transform="translate(276.98517193647524 127.4860741567338) rotate(504.89688112615767)"><path class="outline" fill="#A5ABB6" stroke="none" d="M 24.018736134675446,6.953439040707552 L 24.277555179777966,5.987513214418485 A 160.18128909421586 160.18128909421586 0 0 0 54.05285844074797,11.01895836623396 L 53.97992442272534,12.01629513433943 A 161.18128909421586 161.18128909421586 0 0 1 24.018736134675446,6.953439040707552 Z M 73.36273402556719,12.26499469511279 L 73.31541333095062,11.26611494666406 A 160.18128909421586 160.18128909421586 0 0 0 103.21000925107374,7.00029036388899 L 102.50815788010748,4.083544805381569 L 110.13272411608544,5.848761424718926 L 104.14581107902877,10.889284441898884 L 103.44395970806251,7.972538883391463 A 161.18128909421586 161.18128909421586 0 0 1 73.36273402556719,12.26499469511279"/><text text-anchor="middle" pointer-events="none" font-size="8px" fill="#000000" x="63.67400205804708" y="14.932333205455649" transform="rotate(180 63.67400205804708 11.932333205455649)" font-family="sans-serif">trek</text></g><g class="relationship" transform="translate(292.3082486220448 7.7812384037062605) rotate(457.2946002261482)"><path class="outline" fill="#A5ABB6" stroke="none" d="M 25 0.5 L 45.834931931070784 0.5 L 45.834931931070784 -0.5 L 25 -0.5 Z M 67.84665068107078 0.5 L 88.68158261214157 0.5 L 88.68158261214157 3.5 L 95.68158261214157 0 L 88.68158261214157 -3.5 L 88.68158261214157 -0.5 L 67.84665068107078 -0.5 Z"/><text text-anchor="middle" pointer-events="none" font-size="8px" fill="#000000" x="56.840791306070784" y="3" transform="rotate(180 56.840791306070784 0)" font-family="sans-serif">road</text></g><g class="relationship" transform="translate(292.3082486220448 7.7812384037062605) rotate(457.2946002261482)"><path class="outline" fill="#A5ABB6" stroke="none" d="M 21.40063509461097,-12.933012701892217 L 21.90063509461097,-12.06698729810778 A 73.57409127994423 73.57409127994423 0 0 1 47.10217636087137,-21.006152420364288 L 46.94470918496525,-21.993676642098706 A 74.57409127994423 74.57409127994423 0 0 0 21.40063509461097,-12.933012701892217 Z M 66.34854629148435,-22.529509172534787 L 66.24581804598495,-21.53479971365917 A 73.57409127994423 73.57409127994423 0 0 1 91.90228224441717,-14.000066797851275 L 90.54794945150009,-11.32316883826644 L 98.37409961560128,-11.28610660764225 L 93.70805930163992,-17.56926407729772 L 92.35372650872284,-14.892366117712886 A 74.57409127994423 74.57409127994423 0 0 0 66.34854629148435,-22.529509172534787"/><text text-anchor="middle" pointer-events="none" font-size="8px" fill="#000000" x="56.6429211135437" y="-19.39581906463593" transform="rotate(180 56.6429211135437 -22.39581906463593)" font-family="sans-serif">trek</text></g><g class="relationship" transform="translate(15.718371137751209 -135.6381946259436) rotate(525.8550722934806)"><path class="outline" fill="#A5ABB6" stroke="none" d="M 21.40063509461097,12.933012701892217 L 21.90063509461097,12.06698729810778 A 59.526161659966725 59.526161659966725 0 0 0 40.30512137097317,18.948226657765133 L 40.11430452276943,19.92985231474522 A 60.526161659966725 60.526161659966725 0 0 1 21.40063509461097,12.933012701892217 Z M 59.51783207039598,20.530226588141325 L 59.388068081892534,19.538681678776307 A 59.526161659966725 59.526161659966725 0 0 0 78.18277248069664,13.808441126820703 L 76.84626484355444,11.122599110643922 L 84.67248845796617,11.13756364285169 L 79.96478266355292,17.389563815056412 L 78.62827502641072,14.70372179887963 A 60.526161659966725 60.526161659966725 0 0 1 59.51783207039598,20.530226588141325"/><text text-anchor="middle" pointer-events="none" font-size="8px" fill="#000000" x="49.80730479344673" y="23.513267567715978" transform="rotate(180 49.80730479344673 20.513267567715978)" font-family="sans-serif">trek</text></g><g class="relationship" transform="translate(-88.09031536118798 -109.47670186065427) rotate(496.98531254091347)"><path class="outline" fill="#A5ABB6" stroke="none" d="M 24.018736134675446,-6.953439040707552 L 24.277555179777966,-5.987513214418485 A 154.68739230029323 154.68739230029323 0 0 1 52.6632743483558,-10.81901066977079 L 52.58795907008563,-11.816170440749886 A 155.68739230029323 155.68739230029323 0 0 0 24.018736134675446,-6.953439040707552 Z M 71.97198953276882,-12.069882917900657 L 71.92279870828858,-11.071093519285057 A 154.68739230029323 154.68739230029323 0 0 1 100.42524847734002,-6.98419034681542 L 99.72490083563504,-4.067083358589196 L 107.3485560568187,-5.836230347541504 L 101.35904533294665,-10.873666331117052 L 100.65869769124167,-7.956559342890828 A 155.68739230029323 155.68739230029323 0 0 0 71.97198953276882,-12.069882917900657"/><text text-anchor="middle" pointer-events="none" font-size="8px" fill="#000000" x="62.282565343200446" y="-8.745067031356115" transform="rotate(180 62.282565343200446 -11.745067031356115)" font-family="sans-serif">trek</text></g><g class="relationship" transform="translate(-184.35570037428906 -19.66163110273822) rotate(423.68547644218665)"><path class="outline" fill="#A5ABB6" stroke="none" d="M 24.018736134675446,-6.953439040707552 L 24.277555179777966,-5.987513214418485 A 104.64029298375243 104.64029298375243 0 0 1 40.086239723175865,-8.943915185622302 L 39.97849713335289,-9.938094009747147 A 105.64029298375243 105.64029298375243 0 0 0 24.018736134675446,-6.953439040707552 Z M 59.376537998721176,-10.248471852471496 L 59.30065708355869,-9.251354965284193 A 104.64029298375243 104.64029298375243 0 0 1 75.19583262216914,-6.802229773554328 L 74.51248084475803,-3.8810946605701484 L 82.1257065153674,-5.694598145092467 L 76.10696832538393,-10.697076590866567 L 75.42361654797283,-7.775941477882388 A 105.64029298375243 105.64029298375243 0 0 0 59.376537998721176,-10.248471852471496"/><text text-anchor="middle" pointer-events="none" font-size="8px" fill="#000000" x="49.678376701345925" y="-7.039588563996972" font-family="sans-serif">trek</text></g><g class="relationship" transform="translate(-137.15838277690457 75.77397293075136) rotate(368.1619619383417)"><path class="outline" fill="#A5ABB6" stroke="none" d="M 24.018736134675446,6.953439040707552 L 24.277555179777966,5.987513214418485 A 104.24667979508912 104.24667979508912 0 0 0 26.699348171902503,6.605411736836302 L 26.46376049490576,7.577264836047945 A 105.24667979508912 105.24667979508912 0 0 1 24.018736134675446,6.953439040707552 Z M 72.76261353966535,8.31935827437654 L 72.55829324868722,7.3404541837248445 A 104.24667979508912 104.24667979508912 0 0 0 74.99864488624395,6.800487734967757 L 74.3154558302436,3.8793145607513875 L 81.92858046874888,5.6932421333363195 L 75.90956362757777,10.695385300589583 L 75.22637457157741,7.774212126373214 A 105.24667979508912 105.24667979508912 0 0 1 72.76261353966535,8.31935827437654"/><text text-anchor="middle" pointer-events="none" font-size="8px" fill="#000000" x="49.57988224683685" y="13.026180180713922" font-family="sans-serif">twowheeler</text></g><g class="relationship" transform="translate(-137.15838277690457 75.77397293075136) rotate(368.1619619383417)"><path class="outline" fill="#A5ABB6" stroke="none" d="M 24.018736134675446,-6.953439040707552 L 24.277555179777966,-5.987513214418485 A 104.24667979508912 104.24667979508912 0 0 1 39.98807674744761,-8.92859336456742 L 39.87996294877165,-9.92273188938971 A 105.24667979508912 105.24667979508912 0 0 0 24.018736134675446,-6.953439040707552 Z M 59.27813421730233,-10.233652239836289 L 59.20193653644946,-9.236559509227618 A 104.24667979508912 104.24667979508912 0 0 1 74.99864488624395,-6.800487734967757 L 74.3154558302436,-3.8793145607513875 L 81.92858046874888,-5.6932421333363195 L 75.90956362757777,-10.695385300589583 L 75.22637457157741,-7.774212126373214 A 105.24667979508912 105.24667979508912 0 0 0 59.27813421730233,-10.233652239836289"/><text text-anchor="middle" pointer-events="none" font-size="8px" fill="#000000" x="49.57988224683681" y="-7.026180180713922" font-family="sans-serif">trek</text></g><g class="relationship" transform="translate(-184.35570037428906 -19.66163110273822) rotate(423.68547644218665)"><path class="outline" fill="#A5ABB6" stroke="none" d="M 24.018736134675446,6.953439040707552 L 24.277555179777966,5.987513214418485 A 104.64029298375243 104.64029298375243 0 0 0 26.795775017441848,6.62886340196404 L 26.561021461510453,7.6009183222116405 A 105.64029298375243 105.64029298375243 0 0 1 24.018736134675446,6.953439040707552 Z M 72.86191796795583,8.34175459911269 L 72.65838329882934,7.3626868596464305 A 104.64029298375243 104.64029298375243 0 0 0 75.19583262216914,6.802229773554328 L 74.51248084475803,3.8810946605701484 L 82.1257065153674,5.694598145092467 L 76.10696832538393,10.697076590866567 L 75.42361654797283,7.775941477882388 A 105.64029298375243 105.64029298375243 0 0 1 72.86191796795583,8.34175459911269"/><text text-anchor="middle" pointer-events="none" font-size="8px" fill="#000000" x="49.67837670134594" y="13.039588563996972" font-family="sans-serif">twowheeler</text></g><g class="relationship" transform="translate(-88.09031536118798 -109.47670186065427) rotate(496.98531254091347)"><path class="outline" fill="#A5ABB6" stroke="none" d="M 24.018736134675446,6.953439040707552 L 24.277555179777966,5.987513214418485 A 154.68739230029323 154.68739230029323 0 0 0 39.24256335473784,9.21313755897802 L 39.08048786418376,10.199915920800805 A 155.68739230029323 155.68739230029323 0 0 1 24.018736134675446,6.953439040707552 Z M 85.51713567927695,10.807712992231643 L 85.38094265155868,9.817030672211274 A 154.68739230029323 154.68739230029323 0 0 0 100.42524847734002,6.98419034681542 L 99.72490083563504,4.067083358589196 L 107.3485560568187,5.836230347541504 L 101.35904533294665,10.873666331117052 L 100.65869769124167,7.956559342890828 A 155.68739230029323 155.68739230029323 0 0 1 85.51713567927695,10.807712992231643"/><text text-anchor="middle" pointer-events="none" font-size="8px" fill="#000000" x="62.28256534320051" y="14.745067031356115" transform="rotate(180 62.28256534320051 11.745067031356115)" font-family="sans-serif">twowheeler</text></g><g class="relationship" transform="translate(-88.09031536118798 -109.47670186065427) rotate(398.2883407000805)"><path class="outline" fill="#A5ABB6" stroke="none" d="M 25 0.5 L 49.00592343033544 0.5 L 49.00592343033544 -0.5 L 25 -0.5 Z M 68.34186093033544 0.5 L 92.34778436067089 0.5 L 92.34778436067089 3.5 L 99.34778436067089 0 L 92.34778436067089 -3.5 L 92.34778436067089 -0.5 L 68.34186093033544 -0.5 Z"/><text text-anchor="middle" pointer-events="none" font-size="8px" fill="#000000" x="58.67389218033544" y="3" font-family="sans-serif">trek</text></g><g class="relationship" transform="translate(15.718371137751209 -135.6381946259436) rotate(525.8550722934806)"><path class="outline" fill="#A5ABB6" stroke="none" d="M 25 0.5 L 26.28115887971967 0.5 L 26.28115887971967 -0.5 L 25 -0.5 Z M 73.77334637971967 0.5 L 75.05450525943934 0.5 L 75.05450525943934 3.5 L 82.05450525943934 0 L 75.05450525943934 -3.5 L 75.05450525943934 -0.5 L 73.77334637971967 -0.5 Z"/><text text-anchor="middle" pointer-events="none" font-size="8px" fill="#000000" x="50.02725262971967" y="3" transform="rotate(180 50.02725262971967 0)" font-family="sans-serif">PublicTra…</text></g><g class="relationship" transform="translate(15.718371137751209 -135.6381946259436) rotate(525.8550722934806)"><path class="outline" fill="#A5ABB6" stroke="none" d="M 21.40063509461097,-12.933012701892217 L 21.90063509461097,-12.06698729810778 A 59.526161659966725 59.526161659966725 0 0 1 39.00568211510278,-18.68056876250872 L 38.793035550021045,-19.657697944530703 A 60.526161659966725 60.526161659966725 0 0 0 21.40063509461097,-12.933012701892217 Z M 60.8533991803178,-20.340278715108845 L 60.70156924424238,-19.351872082942037 A 59.526161659966725 59.526161659966725 0 0 1 78.18277248069664,-13.808441126820703 L 76.84626484355444,-11.122599110643922 L 84.67248845796617,-11.13756364285169 L 79.96478266355292,-17.389563815056412 L 78.62827502641072,-14.70372179887963 A 60.526161659966725 60.526161659966725 0 0 0 60.8533991803178,-20.340278715108845"/><text text-anchor="middle" pointer-events="none" font-size="8px" fill="#000000" x="49.80730479344674" y="-17.513267567715978" transform="rotate(180 49.80730479344674 -20.513267567715978)" font-family="sans-serif">road</text></g><g class="relationship" transform="translate(276.98517193647524 127.4860741567338) rotate(326.42041046348703)"><path class="outline" fill="#A5ABB6" stroke="none" d="M 25 0.5 L 47.92303361608221 0.5 L 47.92303361608221 -0.5 L 25 -0.5 Z M 67.25897111608221 0.5 L 90.18200473216442 0.5 L 90.18200473216442 3.5 L 97.18200473216442 0 L 90.18200473216442 -3.5 L 90.18200473216442 -0.5 L 67.25897111608221 -0.5 Z"/><text text-anchor="middle" pointer-events="none" font-size="8px" fill="#000000" x="57.59100236608221" y="3" font-family="sans-serif">trek</text></g><g class="relationship" transform="translate(-88.09031536118798 -109.47670186065427) rotate(301.7900832092038)"><path class="outline" fill="#A5ABB6" stroke="none" d="M 25 0.5 L 48.86575569691055 0.5 L 48.86575569691055 -0.5 L 25 -0.5 Z M 68.20169319691055 0.5 L 92.0674488938211 0.5 L 92.0674488938211 3.5 L 99.0674488938211 0 L 92.0674488938211 -3.5 L 92.0674488938211 -0.5 L 68.20169319691055 -0.5 Z"/><text text-anchor="middle" pointer-events="none" font-size="8px" fill="#000000" x="58.53372444691055" y="3" font-family="sans-serif">trek</text></g><g class="relationship" transform="translate(166.99820166156601 204.79515628363956) rotate(492.66358234789817)"><path class="outline" fill="#A5ABB6" stroke="none" d="M 24.018736134675446,-6.953439040707552 L 24.277555179777966,-5.987513214418485 A 155.7598166181056 155.7598166181056 0 0 1 39.512101547475126,-9.262638723998663 L 39.351090439608754,-10.24959131817107 A 156.7598166181056 156.7598166181056 0 0 0 24.018736134675446,-6.953439040707552 Z M 85.7891219696291,-10.855032804710902 L 85.65389624504783,-9.864217986790067 A 155.7598166181056 155.7598166181056 0 0 1 100.96864955032858,-6.987382688861057 L 100.26800374530751,-4.070347300679011 L 107.89183975692353,-5.838715041842241 L 101.90284395702332,-10.876763206437118 L 101.20219815200225,-7.9597278182550735 A 156.7598166181056 156.7598166181056 0 0 0 85.7891219696291,-10.855032804710902"/><text text-anchor="middle" pointer-events="none" font-size="8px" fill="#000000" x="62.554078933665295" y="-8.781621466943562" transform="rotate(180 62.554078933665295 -11.781621466943562)" font-family="sans-serif">twowheeler</text></g><g class="relationship" transform="translate(77.40694719598294 302.00817424176694) rotate(366.2953420092245)"><path class="outline" fill="#A5ABB6" stroke="none" d="M 21.40063509461097,12.933012701892217 L 21.90063509461097,12.06698729810778 A 50.2097909870853 50.2097909870853 0 0 0 35.84019570461342,17.536646687268366 L 35.61782204672642,18.51160820254882 A 51.2097909870853 51.2097909870853 0 0 1 21.40063509461097,12.933012701892217 Z M 55.015381686123604,19.163524461838023 L 54.85896919266137,18.175832641537312 A 50.2097909870853 50.2097909870853 0 0 0 69.13431119505566,13.65442417204008 L 67.81213198427619,10.961499714395085 L 75.6381647980239,11.01816008982884 L 70.89721680942827,17.244990115566743 L 69.5750375986488,14.552065657921748 A 51.2097909870853 51.2097909870853 0 0 1 55.015381686123604,19.163524461838023"/><text text-anchor="middle" pointer-events="none" font-size="8px" fill="#000000" x="45.30222956892986" y="22.265209444088327" font-family="sans-serif">trek</text></g><g class="relationship" transform="translate(77.40694719598294 302.00817424176694) rotate(366.2953420092245)"><path class="outline" fill="#A5ABB6" stroke="none" d="M 25 0.5 L 34.53374159753277 0.5 L 34.53374159753277 -0.5 L 25 -0.5 Z M 56.54546034753277 0.5 L 66.07920194506553 0.5 L 66.07920194506553 3.5 L 73.07920194506553 0 L 66.07920194506553 -3.5 L 66.07920194506553 -0.5 L 56.54546034753277 -0.5 Z"/><text text-anchor="middle" pointer-events="none" font-size="8px" fill="#000000" x="45.53960097253277" y="3" font-family="sans-serif">road</text></g><g class="relationship" transform="translate(77.40694719598294 302.00817424176694) rotate(366.2953420092245)"><path class="outline" fill="#A5ABB6" stroke="none" d="M 21.40063509461097,-12.933012701892217 L 21.90063509461097,-12.06698729810778 A 50.2097909870853 50.2097909870853 0 0 1 23.298444517653643,-12.844592891893804 L 22.826283897096634,-13.726105426345363 A 51.2097909870853 51.2097909870853 0 0 0 21.40063509461097,-12.933012701892217 Z M 68.09935709973463,-15.247650047290648 L 67.68744707032442,-14.336425526290867 A 50.2097909870853 50.2097909870853 0 0 1 69.13431119505566,-13.65442417204008 L 67.81213198427619,-10.961499714395085 L 75.6381647980239,-11.01816008982884 L 70.89721680942827,-17.244990115566743 L 69.5750375986488,-14.552065657921748 A 51.2097909870853 51.2097909870853 0 0 0 68.09935709973463,-15.247650047290648"/><text text-anchor="middle" pointer-events="none" font-size="8px" fill="#000000" x="45.302229568929846" y="-16.265209444088327" font-family="sans-serif">twowheeler</text></g><g class="relationship" transform="translate(166.99820166156601 204.79515628363956) rotate(492.66358234789817)"><path class="outline" fill="#A5ABB6" stroke="none" d="M 24.018736134675446,6.953439040707552 L 24.277555179777966,5.987513214418485 A 155.7598166181056 155.7598166181056 0 0 0 52.93441502251453,10.858104213563138 L 52.85957706101201,11.85529992129463 A 156.7598166181056 156.7598166181056 0 0 1 24.018736134675446,6.953439040707552 Z M 72.24336477461627,12.108018412183071 L 72.1945499523137,11.109210566236953 A 155.7598166181056 155.7598166181056 0 0 0 100.96864955032858,6.987382688861057 L 100.26800374530751,4.070347300679011 L 107.89183975692353,5.838715041842241 L 101.90284395702332,10.876763206437118 L 101.20219815200225,7.9597278182550735 A 156.7598166181056 156.7598166181056 0 0 1 72.24336477461627,12.108018412183071"/><text text-anchor="middle" pointer-events="none" font-size="8px" fill="#000000" x="62.55407893366532" y="14.781621466943562" transform="rotate(180 62.55407893366532 11.781621466943562)" font-family="sans-serif">trek</text></g><g class="relationship" transform="translate(-184.35570037428906 -19.66163110273822) rotate(470.82088740990986)"><path class="outline" fill="#A5ABB6" stroke="none" d="M 24.018736134675446,-6.953439040707552 L 24.277555179777966,-5.987513214418485 A 151.39370990389563 151.39370990389563 0 0 1 38.41528405997476,-9.060024075228341 L 38.24984887401124,-10.046244739808628 A 152.39370990389563 152.39370990389563 0 0 0 24.018736134675446,-6.953439040707552 Z M 84.68201752889598,-10.661387390415399 L 84.54276711671922,-9.671130190134278 A 151.39370990389563 151.39370990389563 0 0 1 98.75693029621566,-6.974230861944103 L 98.05751286915765,-4.056900701895785 L 105.68060357417141,-5.828478558816789 L 99.68948686562635,-10.864004408675195 L 98.99006943856834,-7.946674248626876 A 152.39370990389563 152.39370990389563 0 0 0 84.68201752889598,-10.661387390415399"/><text text-anchor="middle" pointer-events="none" font-size="8px" fill="#000000" x="61.44898895682958" y="-8.6328007418158" transform="rotate(180 61.44898895682958 -11.6328007418158)" font-family="sans-serif">twowheeler</text></g><g class="relationship" transform="translate(-230.56095130925473 101.84110054492791) rotate(344.40645233508155)"><path class="outline" fill="#A5ABB6" stroke="none" d="M 21.40063509461097,12.933012701892217 L 21.90063509461097,12.06698729810778 A 49.05595818020692 49.05595818020692 0 0 0 34.004835105384934,17.03996414906205 L 33.75157781431969,18.00736310736327 A 50.05595818020692 50.05595818020692 0 0 1 21.40063509461097,12.933012701892217 Z M 55.79034869030031,18.756006230392224 L 55.603323312184834,17.77365114798019 A 49.05595818020692 49.05595818020692 0 0 0 68.01708936476147,13.63353411426691 L 66.6968537003754,10.939656279159486 L 74.52284359074314,11.001963869883967 L 69.7774035839429,17.225371227743473 L 68.45716791955682,14.53149339263605 A 50.05595818020692 50.05595818020692 0 0 1 55.79034869030031,18.756006230392224"/><text text-anchor="middle" pointer-events="none" font-size="8px" fill="#000000" x="44.74619999786313" y="22.110672452389387" font-family="sans-serif">road</text></g><g class="relationship" transform="translate(-230.56095130925473 101.84110054492791) rotate(344.40645233508155)"><path class="outline" fill="#A5ABB6" stroke="none" d="M 25 0.5 L 35.31794402498582 0.5 L 35.31794402498582 -0.5 L 25 -0.5 Z M 54.65388152498582 0.5 L 64.97182554997164 0.5 L 64.97182554997164 3.5 L 71.97182554997164 0 L 64.97182554997164 -3.5 L 64.97182554997164 -0.5 L 54.65388152498582 -0.5 Z"/><text text-anchor="middle" pointer-events="none" font-size="8px" fill="#000000" x="44.98591277498582" y="3" font-family="sans-serif">trek</text></g><g class="relationship" transform="translate(-230.56095130925473 101.84110054492791) rotate(344.40645233508155)"><path class="outline" fill="#A5ABB6" stroke="none" d="M 21.40063509461097,-12.933012701892217 L 21.90063509461097,-12.06698729810778 A 49.05595818020692 49.05595818020692 0 0 1 22.790852869178707,-12.568665718137517 L 22.308999854939284,-13.444917778145587 A 50.05595818020692 50.05595818020692 0 0 0 21.40063509461097,-12.933012701892217 Z M 67.51615900070465,-14.980576413402716 L 67.0948795849741,-14.073645515328487 A 49.05595818020692 49.05595818020692 0 0 1 68.01708936476147,-13.63353411426691 L 66.6968537003754,-10.939656279159486 L 74.52284359074314,-11.001963869883967 L 69.7774035839429,-17.225371227743473 L 68.45716791955682,-14.53149339263605 A 50.05595818020692 50.05595818020692 0 0 0 67.51615900070465,-14.980576413402716"/><text text-anchor="middle" pointer-events="none" font-size="8px" fill="#000000" x="44.74619999786312" y="-16.110672452389387" font-family="sans-serif">twowheeler</text></g><g class="relationship" transform="translate(-184.35570037428906 -19.66163110273822) rotate(470.82088740990986)"><path class="outline" fill="#A5ABB6" stroke="none" d="M 24.018736134675446,6.953439040707552 L 24.277555179777966,5.987513214418485 A 151.39370990389563 151.39370990389563 0 0 0 51.830879657799386,10.698742655625495 L 51.75405842816431,11.695787538605856 A 152.39370990389563 152.39370990389563 0 0 1 24.018736134675446,6.953439040707552 Z M 71.1388482446469,11.952601108477978 L 71.08846744062383,10.953871027532188 A 151.39370990389563 151.39370990389563 0 0 0 98.75693029621566,6.974230861944103 L 98.05751286915765,4.056900701895785 L 105.68060357417141,5.828478558816789 L 99.68948686562635,10.864004408675195 L 98.99006943856834,7.946674248626876 A 152.39370990389563 152.39370990389563 0 0 1 71.1388482446469,11.952601108477978"/><text text-anchor="middle" pointer-events="none" font-size="8px" fill="#000000" x="61.44898895682961" y="14.6328007418158" transform="rotate(180 61.44898895682961 11.6328007418158)" font-family="sans-serif">trek</text></g><g class="relationship" transform="translate(77.40694719598294 302.00817424176694) rotate(413.445604423481)"><path class="outline" fill="#A5ABB6" stroke="none" d="M 25 0.5 L 47.86080114571369 0.5 L 47.86080114571369 -0.5 L 25 -0.5 Z M 67.19673864571368 0.5 L 90.05753979142737 0.5 L 90.05753979142737 3.5 L 97.05753979142737 0 L 90.05753979142737 -3.5 L 90.05753979142737 -0.5 L 67.19673864571368 -0.5 Z"/><text text-anchor="middle" pointer-events="none" font-size="8px" fill="#000000" x="57.52876989571369" y="3" font-family="sans-serif">trek</text></g><g class="relationship" transform="translate(150.10267073152 400.0559931852837) rotate(339.5004270694119)"><path class="outline" fill="#A5ABB6" stroke="none" d="M 25 0.5 L 51.47359872799093 0.5 L 51.47359872799093 -0.5 L 25 -0.5 Z M 70.80953622799093 0.5 L 97.28313495598186 0.5 L 97.28313495598186 3.5 L 104.28313495598186 0 L 97.28313495598186 -3.5 L 97.28313495598186 -0.5 L 70.80953622799093 -0.5 Z"/><text text-anchor="middle" pointer-events="none" font-size="8px" fill="#000000" x="61.14156747799093" y="3" font-family="sans-serif">trek</text></g><g class="relationship" transform="translate(-230.56095130925473 101.84110054492791) rotate(395.6336849157314)"><path class="outline" fill="#A5ABB6" stroke="none" d="M 25 0.5 L 48.26056708824631 0.5 L 48.26056708824631 -0.5 L 25 -0.5 Z M 67.59650458824632 0.5 L 90.85707167649262 0.5 L 90.85707167649262 3.5 L 97.85707167649262 0 L 90.85707167649262 -3.5 L 90.85707167649262 -0.5 L 67.59650458824632 -0.5 Z"/><text text-anchor="middle" pointer-events="none" font-size="8px" fill="#000000" x="57.92853583824631" y="3" font-family="sans-serif">trek</text></g><g class="relationship" transform="translate(-130.70783638522826 173.4177412937924) rotate(320.1024547397704)"><path class="outline" fill="#A5ABB6" stroke="none" d="M 25 0.5 L 51.18658972120076 0.5 L 51.18658972120076 -0.5 L 25 -0.5 Z M 70.52252722120076 0.5 L 96.70911694240152 0.5 L 96.70911694240152 3.5 L 103.70911694240152 0 L 96.70911694240152 -3.5 L 96.70911694240152 -0.5 L 70.52252722120076 -0.5 Z"/><text text-anchor="middle" pointer-events="none" font-size="8px" fill="#000000" x="60.85455847120076" y="3" font-family="sans-serif">trek</text></g></g><g class="layer nodes"><g class="node" transform="translate(292.3082486220448,7.7812384037062605)"><circle class="outline" cx="0" cy="0" r="25" fill="#8DCC93" stroke="#5db665" stroke-width="2px"/><text text-anchor="middle" pointer-events="none" font-family="sans-serif" dy="1.5625" font-size="25" fill="#2A2C34"/><text text-anchor="middle" pointer-events="none" x="0" y="5" font-size="10px" fill="#2A2C34" font-family="sans-serif"> Darjeeling</text></g><g class="node" transform="translate(271.1989252563584,354.7809876733881)"><circle class="outline" cx="0" cy="0" r="25" fill="#ECB5C9" stroke="#da7298" stroke-width="2px"/><text text-anchor="middle" pointer-events="none" font-family="sans-serif" dy="1.5625" font-size="25" fill="#2A2C34"/><text text-anchor="middle" pointer-events="none" x="0" y="5" font-size="10px" fill="#2A2C34" font-family="sans-serif"> Sandak…</text></g><g class="node" transform="translate(15.718371137751209,-135.6381946259436)"><circle class="outline" cx="0" cy="0" r="25" fill="#8DCC93" stroke="#5db665" stroke-width="2px"/><text text-anchor="middle" pointer-events="none" font-family="sans-serif" dy="1.5625" font-size="25" fill="#2A2C34"/><text text-anchor="middle" pointer-events="none" x="0" y="5" font-size="10px" fill="#2A2C34" font-family="sans-serif"> Darjeeling</text></g><g class="node" transform="translate(-31.963150076785745,90.86155612308531)"><circle class="outline" cx="0" cy="0" r="25" fill="#ECB5C9" stroke="#da7298" stroke-width="2px"/><text text-anchor="middle" pointer-events="none" font-family="sans-serif" dy="1.5625" font-size="25" fill="#2A2C34"/><text text-anchor="middle" pointer-events="none" x="0" y="5" font-size="10px" fill="#2A2C34" font-family="sans-serif"> Sandak…</text></g><g class="node" transform="translate(378.7772387479237,59.90784234630349)"><circle class="outline" cx="0" cy="0" r="25" fill="#4C8EDA" stroke="#2870c2" stroke-width="2px"/><text text-anchor="middle" pointer-events="none" font-family="sans-serif" dy="1.5625" font-size="25" fill="#FFFFFF"/><text text-anchor="middle" pointer-events="none" x="0" y="5" font-size="10px" fill="#FFFFFF" font-family="sans-serif"> Tumbling</text></g><g class="node" transform="translate(420.91759159257543,163.25301032190234)"><circle class="outline" cx="0" cy="0" r="25" fill="#4C8EDA" stroke="#2870c2" stroke-width="2px"/><text text-anchor="middle" pointer-events="none" font-family="sans-serif" dy="1.5625" font-size="25" fill="#FFFFFF"/><text text-anchor="middle" pointer-events="none" x="0" y="5" font-size="10px" fill="#FFFFFF" font-family="sans-serif"> Gairibus</text></g><g class="node" transform="translate(331.35446581238693,239.82582047356775)"><circle class="outline" cx="0" cy="0" r="25" fill="#4C8EDA" stroke="#2870c2" stroke-width="2px"/><text text-anchor="middle" pointer-events="none" font-family="sans-serif" dy="1.5625" font-size="25" fill="#FFFFFF"/><text text-anchor="middle" pointer-events="none" x="0" y="5" font-size="10px" fill="#FFFFFF" font-family="sans-serif"> BhikeBh…</text></g><g class="node" transform="translate(-22.73050543255612,-214.9320342109628)"><circle class="outline" cx="0" cy="0" r="25" fill="#4C8EDA" stroke="#2870c2" stroke-width="2px"/><text text-anchor="middle" pointer-events="none" font-family="sans-serif" dy="1.5625" font-size="25" fill="#FFFFFF"/><text text-anchor="middle" pointer-events="none" x="0" y="5" font-size="10px" fill="#FFFFFF" font-family="sans-serif"> Tumbling</text></g><g class="node" transform="translate(83.32792157678884,-144.47341027136957)"><circle class="outline" cx="0" cy="0" r="25" fill="#4C8EDA" stroke="#2870c2" stroke-width="2px"/><text text-anchor="middle" pointer-events="none" font-family="sans-serif" dy="1.5625" font-size="25" fill="#FFFFFF"/><text text-anchor="middle" pointer-events="none" x="0" y="5" font-size="10px" fill="#FFFFFF" font-family="sans-serif"> Gairibus</text></g><g class="node" transform="translate(9.510568354812314,-32.42841198174977)"><circle class="outline" cx="0" cy="0" r="25" fill="#4C8EDA" stroke="#2870c2" stroke-width="2px"/><text text-anchor="middle" pointer-events="none" font-family="sans-serif" dy="1.5625" font-size="25" fill="#FFFFFF"/><text text-anchor="middle" pointer-events="none" x="0" y="5" font-size="10px" fill="#FFFFFF" font-family="sans-serif"> BhikeBh…</text></g><g class="node" transform="translate(276.98517193647524,127.4860741567338)"><circle class="outline" cx="0" cy="0" r="25" fill="#8DCC93" stroke="#5db665" stroke-width="2px"/><text text-anchor="middle" pointer-events="none" font-family="sans-serif" dy="1.5625" font-size="25" fill="#2A2C34"/><text text-anchor="middle" pointer-events="none" x="0" y="5" font-size="10px" fill="#2A2C34" font-family="sans-serif"> Rimbik</text></g><g class="node" transform="translate(166.99820166156601,204.79515628363956)"><circle class="outline" cx="0" cy="0" r="25" fill="#4C8EDA" stroke="#2870c2" stroke-width="2px"/><text text-anchor="middle" pointer-events="none" font-family="sans-serif" dy="1.5625" font-size="25" fill="#FFFFFF"/><text text-anchor="middle" pointer-events="none" x="0" y="5" font-size="10px" fill="#FFFFFF" font-family="sans-serif"> Sirikhola</text></g><g class="node" transform="translate(174.89471912384352,312.7629024448591)"><circle class="outline" cx="0" cy="0" r="25" fill="#4C8EDA" stroke="#2870c2" stroke-width="2px"/><text text-anchor="middle" pointer-events="none" font-family="sans-serif" dy="1.5625" font-size="25" fill="#FFFFFF"/><text text-anchor="middle" pointer-events="none" x="0" y="5" font-size="10px" fill="#FFFFFF" font-family="sans-serif"> Gurdum</text></g><g class="node" transform="translate(-88.09031536118798,-109.47670186065427)"><circle class="outline" cx="0" cy="0" r="25" fill="#8DCC93" stroke="#5db665" stroke-width="2px"/><text text-anchor="middle" pointer-events="none" font-family="sans-serif" dy="1.5625" font-size="25" fill="#2A2C34"/><text text-anchor="middle" pointer-events="none" x="0" y="5" font-size="10px" fill="#2A2C34" font-family="sans-serif"> Rimbik</text></g><g class="node" transform="translate(-184.35570037428906,-19.66163110273822)"><circle class="outline" cx="0" cy="0" r="25" fill="#4C8EDA" stroke="#2870c2" stroke-width="2px"/><text text-anchor="middle" pointer-events="none" font-family="sans-serif" dy="1.5625" font-size="25" fill="#FFFFFF"/><text text-anchor="middle" pointer-events="none" x="0" y="5" font-size="10px" fill="#FFFFFF" font-family="sans-serif"> Sirikhola</text></g><g class="node" transform="translate(-137.15838277690457,75.77397293075136)"><circle class="outline" cx="0" cy="0" r="25" fill="#4C8EDA" stroke="#2870c2" stroke-width="2px"/><text text-anchor="middle" pointer-events="none" font-family="sans-serif" dy="1.5625" font-size="25" fill="#FFFFFF"/><text text-anchor="middle" pointer-events="none" x="0" y="5" font-size="10px" fill="#FFFFFF" font-family="sans-serif"> Gurdum</text></g><g class="node" transform="translate(77.40694719598294,302.00817424176694)"><circle class="outline" cx="0" cy="0" r="25" fill="#4C8EDA" stroke="#2870c2" stroke-width="2px"/><text text-anchor="middle" pointer-events="none" font-family="sans-serif" dy="1.5625" font-size="25" fill="#FFFFFF"/><text text-anchor="middle" pointer-events="none" x="0" y="5" font-size="10px" fill="#FFFFFF" font-family="sans-serif"> Rammam</text></g><g class="node" transform="translate(-230.56095130925473,101.84110054492791)"><circle class="outline" cx="0" cy="0" r="25" fill="#4C8EDA" stroke="#2870c2" stroke-width="2px"/><text text-anchor="middle" pointer-events="none" font-family="sans-serif" dy="1.5625" font-size="25" fill="#FFFFFF"/><text text-anchor="middle" pointer-events="none" x="0" y="5" font-size="10px" fill="#FFFFFF" font-family="sans-serif"> Rammam</text></g><g class="node" transform="translate(150.10267073152,400.0559931852837)"><circle class="outline" cx="0" cy="0" r="25" fill="#ECB5C9" stroke="#da7298" stroke-width="2px"/><text text-anchor="middle" pointer-events="none" font-family="sans-serif" dy="1.5625" font-size="25" fill="#2A2C34"/><text text-anchor="middle" pointer-events="none" x="0" y="5" font-size="10px" fill="#2A2C34" font-family="sans-serif"> Sabargr…</text></g><g class="node" transform="translate(-130.70783638522826,173.4177412937924)"><circle class="outline" cx="0" cy="0" r="25" fill="#ECB5C9" stroke="#da7298" stroke-width="2px"/><text text-anchor="middle" pointer-events="none" font-family="sans-serif" dy="1.5625" font-size="25" fill="#2A2C34"/><text text-anchor="middle" pointer-events="none" x="0" y="5" font-size="10px" fill="#2A2C34" font-family="sans-serif"> Sabargr…</text></g></g></svg>