<svg xmlns="http://www.w3.org/2000/svg" width="393.072021484375" height="379.033203125" viewBox="-96.56251525878906 -89.18084716796875 393.072021484375 379.033203125"><title>Neo4j Graph Visualization</title><desc>Created using Neo4j (http://www.neo4j.com/)</desc><g class="layer relationships"><g class="relationship" transform="translate(267.5095181549393 48.63847575333034) rotate(226.88222479166075)"><path class="outline" fill="#A5ABB6" stroke="none" d="M 21.40063509461097,12.933012701892217 L 21.90063509461097,12.06698729810778 A 57.95593134614652 57.95593134614652 0 0 0 39.54972369364704,18.713575338507887 L 39.35424970486106,19.694284224828444 A 58.95593134614652 58.95593134614652 0 0 1 21.40063509461097,12.933012701892217 Z M 58.757252914652895,20.302801274200007 L 58.62361662111847,19.31177083014171 A 57.95593134614652 57.95593134614652 0 0 0 76.65451190241336,13.784178559506104 L 75.32026135017323,11.097214573173783 L 83.1464696292288,11.11875460200117 L 78.43351263873355,17.3667972079492 L 77.09926208649341,14.67983322161688 A 58.95593134614652 58.95593134614652 0 0 1 58.757252914652895,20.302801274200007"/><text text-anchor="middle" pointer-events="none" font-size="8px" fill="#000000" x="49.04620658719122" y="23.30288308438446" transform="rotate(180 49.04620658719122 20.30288308438446)" font-family="sans-serif">trek</text></g><g class="relationship" transform="translate(195.3743793306526 -28.398895780096037) rotate(197.62615808913182)"><path class="outline" fill="#A5ABB6" stroke="none" d="M 25 0.5 L 39.311264462197826 0.5 L 39.311264462197826 -0.5 L 25 -0.5 Z M 58.647201962197826 0.5 L 72.95846642439565 0.5 L 72.95846642439565 3.5 L 79.95846642439565 0 L 72.95846642439565 -3.5 L 72.95846642439565 -0.5 L 58.647201962197826 -0.5 Z"/><text text-anchor="middle" pointer-events="none" font-size="8px" fill="#000000" x="48.979233212197826" y="3" transform="rotate(180 48.979233212197826 0)" font-family="sans-serif">trek</text></g><g class="relationship" transform="translate(95.34344808797361 -60.18084771642963) rotate(527.9394151216783)"><path class="outline" fill="#A5ABB6" stroke="none" d="M 25 0.5 L 39.582713648072314 0.5 L 39.582713648072314 -0.5 L 25 -0.5 Z M 58.918651148072314 0.5 L 73.50136479614463 0.5 L 73.50136479614463 3.5 L 80.50136479614463 0 L 73.50136479614463 -3.5 L 73.50136479614463 -0.5 L 58.918651148072314 -0.5 Z"/><text text-anchor="middle" pointer-events="none" font-size="8px" fill="#000000" x="49.250682398072314" y="3" transform="rotate(180 49.250682398072314 0)" font-family="sans-serif">trek</text></g><g class="relationship" transform="translate(-67.56251313867304 151.39540089703894) rotate(406.6324334561082)"><path class="outline" fill="#A5ABB6" stroke="none" d="M 21.40063509461097,12.933012701892217 L 21.90063509461097,12.06698729810778 A 57.94677071319214 57.94677071319214 0 0 0 38.247552047549746,18.438015085428113 L 38.02965434163354,19.413986698620036 A 58.94677071319214 58.94677071319214 0 0 1 21.40063509461097,12.933012701892217 Z M 60.087865620874496,20.1058312176118 L 59.93155773397603,19.118122837322687 A 57.94677071319214 57.94677071319214 0 0 0 76.64559965014668,13.784035121735705 L 75.31136244166636,11.097064509409135 L 83.1375706136554,11.11864340400271 L 78.42458259478711,17.3666626048378 L 77.0903453863068,14.67969199251123 A 58.94677071319214 58.94677071319214 0 0 1 60.087865620874496,20.1058312176118"/><text text-anchor="middle" pointer-events="none" font-size="8px" fill="#000000" x="49.04176837027518" y="23.30165574465127" font-family="sans-serif">road</text></g><g class="relationship" transform="translate(4.901724651594646 228.11112597903235) rotate(378.1754301888308)"><path class="outline" fill="#A5ABB6" stroke="none" d="M 25 0.5 L 39.314130601498135 0.5 L 39.314130601498135 -0.5 L 25 -0.5 Z M 58.650068101498135 0.5 L 72.96419870299627 0.5 L 72.96419870299627 3.5 L 79.96419870299627 0 L 72.96419870299627 -3.5 L 72.96419870299627 -0.5 L 58.650068101498135 -0.5 Z"/><text text-anchor="middle" pointer-events="none" font-size="8px" fill="#000000" x="48.982099351498135" y="3" font-family="sans-serif">trek</text></g><g class="relationship" transform="translate(104.62882922424284 260.85234805332544) rotate(347.5588197038322)"><path class="outline" fill="#A5ABB6" stroke="none" d="M 25 0.5 L 39.59107562080897 0.5 L 39.59107562080897 -0.5 L 25 -0.5 Z M 58.92701312080897 0.5 L 73.51808874161794 0.5 L 73.51808874161794 3.5 L 80.51808874161794 0 L 73.51808874161794 -3.5 L 73.51808874161794 -0.5 L 58.92701312080897 -0.5 Z"/><text text-anchor="middle" pointer-events="none" font-size="8px" fill="#000000" x="49.25904437080897" y="3" font-family="sans-serif">trek</text></g><g class="relationship" transform="translate(267.5095181549393 48.63847575333034) rotate(226.88222479166075)"><path class="outline" fill="#A5ABB6" stroke="none" d="M 25 0.5 L 38.2630587159991 0.5 L 38.2630587159991 -0.5 L 25 -0.5 Z M 60.2747774659991 0.5 L 73.5378361819982 0.5 L 73.5378361819982 3.5 L 80.5378361819982 0 L 73.5378361819982 -3.5 L 73.5378361819982 -0.5 L 60.2747774659991 -0.5 Z"/><text text-anchor="middle" pointer-events="none" font-size="8px" fill="#000000" x="49.2689180909991" y="3" transform="rotate(180 49.2689180909991 0)" font-family="sans-serif">road</text></g><g class="relationship" transform="translate(267.5095181549393 48.63847575333034) rotate(226.88222479166075)"><path class="outline" fill="#A5ABB6" stroke="none" d="M 21.40063509461097,-12.933012701892217 L 21.90063509461097,-12.06698729810778 A 57.95593134614652 57.95593134614652 0 0 1 22.593731912182747,-12.460816309502711 L 22.10569094383789,-13.333637031768752 A 58.95593134614652 58.95593134614652 0 0 0 21.40063509461097,-12.933012701892217 Z M 76.37048775408451,-15.035489764703158 L 75.93809891034408,-14.133802519695877 A 57.95593134614652 57.95593134614652 0 0 1 76.65451190241336,-13.784178559506104 L 75.32026135017323,-11.097214573173783 L 83.1464696292288,-11.11875460200117 L 78.43351263873355,-17.3667972079492 L 77.09926208649341,-14.67983322161688 A 58.95593134614652 58.95593134614652 0 0 0 76.37048775408451,-15.035489764703158"/><text text-anchor="middle" pointer-events="none" font-size="8px" fill="#000000" x="49.0462065871912" y="-17.30288308438446" transform="rotate(180 49.0462065871912 -20.30288308438446)" font-family="sans-serif">PublicTrans…</text></g><g class="relationship" transform="translate(-67.56251313867304 151.39540089703894) rotate(406.6324334561082)"><path class="outline" fill="#A5ABB6" stroke="none" d="M 25 0.5 L 25.51840244152175 0.5 L 25.51840244152175 -0.5 L 25 -0.5 Z M 73.01058994152174 0.5 L 73.5289923830435 0.5 L 73.5289923830435 3.5 L 80.5289923830435 0 L 73.5289923830435 -3.5 L 73.5289923830435 -0.5 L 73.01058994152174 -0.5 Z"/><text text-anchor="middle" pointer-events="none" font-size="8px" fill="#000000" x="49.26449619152175" y="3" font-family="sans-serif">PublicTra…</text></g><g class="relationship" transform="translate(-67.56251313867304 151.39540089703894) rotate(406.6324334561082)"><path class="outline" fill="#A5ABB6" stroke="none" d="M 21.40063509461097,-12.933012701892217 L 21.90063509461097,-12.06698729810778 A 57.94677071319214 57.94677071319214 0 0 1 39.54531980842105,-18.712202993710008 L 39.349817962444895,-19.6929063271498 A 58.94677071319214 58.94677071319214 0 0 0 21.40063509461097,-12.933012701892217 Z M 58.752817671313736,-20.301471492776486 L 58.619158148921215,-19.310444181309336 A 57.94677071319214 57.94677071319214 0 0 1 76.64559965014668,-13.784035121735705 L 75.31136244166636,-11.097064509409135 L 83.1375706136554,-11.11864340400271 L 78.42458259478711,-17.3666626048378 L 77.0903453863068,-14.67969199251123 A 58.94677071319214 58.94677071319214 0 0 0 58.752817671313736,-20.301471492776486"/><text text-anchor="middle" pointer-events="none" font-size="8px" fill="#000000" x="49.041768370275186" y="-17.30165574465127" font-family="sans-serif">trek</text></g></g><g class="layer nodes"><g class="node" transform="translate(267.5095181549393,48.63847575333034)"><circle class="outline" cx="0" cy="0" r="25" fill="#8DCC93" stroke="#5db665" stroke-width="2px"/><text text-anchor="middle" pointer-events="none" font-family="sans-serif" dy="1.5625" font-size="25" fill="#2A2C34"/><text text-anchor="middle" pointer-events="none" x="0" y="5" font-size="10px" fill="#2A2C34" font-family="sans-serif"> Darjeeling</text></g><g class="node" transform="translate(-7.82920691666446,-38.13677293105661)"><circle class="outline" cx="0" cy="0" r="25" fill="#ECB5C9" stroke="#da7298" stroke-width="2px"/><text text-anchor="middle" pointer-events="none" font-family="sans-serif" dy="1.5625" font-size="25" fill="#2A2C34"/><text text-anchor="middle" pointer-events="none" x="0" y="5" font-size="10px" fill="#2A2C34" font-family="sans-serif"> Sandak…</text></g><g class="node" transform="translate(-67.56251313867304,151.39540089703894)"><circle class="outline" cx="0" cy="0" r="25" fill="#8DCC93" stroke="#5db665" stroke-width="2px"/><text text-anchor="middle" pointer-events="none" font-family="sans-serif" dy="1.5625" font-size="25" fill="#2A2C34"/><text text-anchor="middle" pointer-events="none" x="0" y="5" font-size="10px" fill="#2A2C34" font-family="sans-serif"> Darjeeling</text></g><g class="node" transform="translate(207.669109388479,238.11982255879053)"><circle class="outline" cx="0" cy="0" r="25" fill="#ECB5C9" stroke="#da7298" stroke-width="2px"/><text text-anchor="middle" pointer-events="none" font-family="sans-serif" dy="1.5625" font-size="25" fill="#2A2C34"/><text text-anchor="middle" pointer-events="none" x="0" y="5" font-size="10px" fill="#2A2C34" font-family="sans-serif"> Sandak…</text></g><g class="node" transform="translate(195.3743793306526,-28.398895780096037)"><circle class="outline" cx="0" cy="0" r="25" fill="#8DCC93" stroke="#5db665" stroke-width="2px"/><text text-anchor="middle" pointer-events="none" font-family="sans-serif" dy="1.5625" font-size="25" fill="#2A2C34"/><text text-anchor="middle" pointer-events="none" x="0" y="5" font-size="10px" fill="#2A2C34" font-family="sans-serif"> Rimbik</text></g><g class="node" transform="translate(95.34344808797361,-60.18084771642963)"><circle class="outline" cx="0" cy="0" r="25" fill="#4C8EDA" stroke="#2870c2" stroke-width="2px"/><text text-anchor="middle" pointer-events="none" font-family="sans-serif" dy="1.5625" font-size="25" fill="#FFFFFF"/><text text-anchor="middle" pointer-events="none" x="0" y="5" font-size="10px" fill="#FFFFFF" font-family="sans-serif"> BhikeBh…</text></g><g class="node" transform="translate(4.901724651594646,228.11112597903235)"><circle class="outline" cx="0" cy="0" r="25" fill="#8DCC93" stroke="#5db665" stroke-width="2px"/><text text-anchor="middle" pointer-events="none" font-family="sans-serif" dy="1.5625" font-size="25" fill="#2A2C34"/><text text-anchor="middle" pointer-events="none" x="0" y="5" font-size="10px" fill="#2A2C34" font-family="sans-serif"> Rimbik</text></g><g class="node" transform="translate(104.62882922424284,260.85234805332544)"><circle class="outline" cx="0" cy="0" r="25" fill="#4C8EDA" stroke="#2870c2" stroke-width="2px"/><text text-anchor="middle" pointer-events="none" font-family="sans-serif" dy="1.5625" font-size="25" fill="#FFFFFF"/><text text-anchor="middle" pointer-events="none" x="0" y="5" font-size="10px" fill="#FFFFFF" font-family="sans-serif"> BhikeBh…</text></g></g></svg>